<?xml version="1.0" encoding="UTF-8"?>
<svg version="1.1" xmlns="http://www.w3.org/2000/svg" width="1024" height="1024">
<path d="M0 0 C337.92 0 675.84 0 1024 0 C1024 337.92 1024 675.84 1024 1024 C686.08 1024 348.16 1024 0 1024 C0 686.08 0 348.16 0 0 Z " fill="#FAFBFB" transform="translate(0,0)"/>
<path d="M0 0 C-0.56634407 8.74775048 -2.0418277 17.22433566 -3.75 25.8125 C-4.01863618 27.18317088 -4.28718989 28.55385793 -4.55566406 29.92456055 C-6.4952198 39.75904703 -8.62644843 49.54325643 -10.921875 59.30078125 C-11.64604846 62.40120434 -12.31404815 65.50536994 -12.92944336 68.62915039 C-13.99029897 73.9704579 -15.09399584 79.30216531 -16.20703125 84.6328125 C-16.41430344 85.62715302 -16.62157562 86.62149353 -16.83512878 87.64596558 C-17.49387335 90.80572293 -18.1531716 93.96536443 -18.8125 97.125 C-19.45804458 100.22059672 -20.10347606 103.31621627 -20.7481842 106.4119873 C-21.17876479 108.4743503 -21.61140988 110.53628335 -22.04612732 112.59777832 C-23.17495528 117.96380719 -24.26279497 123.33371729 -25.28735352 128.72070312 C-25.50006393 129.81140106 -25.71277435 130.902099 -25.93193054 132.02584839 C-26.33644325 134.10487701 -26.72884577 136.18631184 -27.10700989 138.27029419 C-28.43233966 144.98956566 -30.17230644 149.05648244 -35.96875 153.10546875 C-36.9690625 153.73066406 -37.969375 154.35585938 -39 155 C-40.80285426 156.32861156 -42.57419236 157.69440972 -44.34912109 159.06005859 C-46.36530048 160.60290464 -48.40184467 162.11460937 -50.4453125 163.62109375 C-55.56440958 167.40551249 -60.6265157 171.26338476 -65.6875 175.125 C-66.57904785 175.80377197 -67.4705957 176.48254395 -68.38916016 177.18188477 C-72.3268949 180.18267006 -76.25707789 183.19141089 -80.15625 186.2421875 C-81.06564331 186.95157471 -81.06564331 186.95157471 -81.9934082 187.67529297 C-83.56524652 188.90440303 -85.1324337 190.13945485 -86.69921875 191.375 C-89 193 -89 193 -91 193 C-90.79246094 192.16726563 -90.58492188 191.33453125 -90.37109375 190.4765625 C-87.90968671 180.3219711 -85.76908855 170.11263874 -83.6875 159.875 C-80.77152437 145.55184721 -77.63258832 131.29262702 -74.37658691 117.0423584 C-70.28402783 99.1183934 -66.2459291 81.17784834 -62.51245117 63.17529297 C-62.01111339 60.75866183 -61.50237069 58.34355293 -60.9855957 55.93017578 C-59.87058946 50.65100835 -58.88343203 45.44466516 -58.3046875 40.078125 C-56.86714584 27.82786508 -56.86714584 27.82786508 -52.21484375 23.2734375 C-48.94486098 21.15204423 -45.44504403 19.67885436 -41.84423828 18.2109375 C-38.42472367 16.75507549 -35.10346985 15.12337057 -31.77734375 13.46875 C-4.58800097 0 -4.58800097 0 0 0 Z " fill="#226AAB" transform="translate(562,395)"/>
<path d="M0 0 C-1.13260348 8.95940068 -2.95810607 17.68090721 -5.05053711 26.45898438 C-6.15619077 31.12596885 -7.16010943 35.75969509 -7.8984375 40.5 C-8.04361816 41.36415527 -8.18879883 42.22831055 -8.33837891 43.11865234 C-8.60533234 44.74412325 -8.84136233 46.37509241 -9.04052734 48.01025391 C-9.43367641 50.29514972 -9.8490353 51.9845367 -11 54 C-13.77448754 55.95243159 -16.81255551 56.89520729 -20 58 C-21.87487459 58.80924074 -23.74184048 59.63698827 -25.6015625 60.48046875 C-27.06867676 61.13692383 -27.06867676 61.13692383 -28.56542969 61.80664062 C-39.90218934 66.92319924 -51.3631926 72.10122463 -61.265625 79.75 C-63 81 -63 81 -65 81 C-64.71236912 79.02024279 -64.41965534 77.04122392 -64.125 75.0625 C-63.96257812 73.96035156 -63.80015625 72.85820312 -63.6328125 71.72265625 C-62.90528314 67.44280761 -61.97805214 63.22842543 -61 59 C-62.03253906 59.24234375 -63.06507813 59.4846875 -64.12890625 59.734375 C-73.83443678 61.97159733 -83.55746749 63.843145 -93.37915039 65.49462891 C-99.62401656 66.55530373 -105.81290816 67.76929806 -112 69.125 C-119.97063876 70.86427596 -127.90133386 72.03084682 -136 73 C-138.33411721 73.32779933 -140.66768363 73.65962388 -143 74 C-141.59243021 64.03750136 -138.81521853 54.41565036 -136.05175781 44.76293945 C-135.51354584 42.86625029 -134.98633418 40.96640788 -134.46972656 39.0637207 C-133.7173983 36.29419449 -132.93300195 33.53564087 -132.140625 30.77734375 C-131.91538147 29.92534897 -131.69013794 29.07335419 -131.45806885 28.19554138 C-130.7965653 25.96956908 -130.15106324 24.01674957 -129 22 C-126.1784668 20.51660156 -126.1784668 20.51660156 -123 20 C-122.04037354 19.81026611 -121.08074707 19.62053223 -120.09204102 19.42504883 C-119.07295654 19.27060303 -118.05387207 19.11615723 -117.00390625 18.95703125 C-115.23527222 18.68221924 -115.23527222 18.68221924 -113.4309082 18.40185547 C-112.1543335 18.20736816 -110.87775879 18.01288086 -109.5625 17.8125 C-96.94424712 15.84957971 -84.37528204 13.66480315 -71.8125 11.375 C-49.74660537 7.3542183 -49.74660537 7.3542183 -38.74145508 5.88623047 C-34.34296225 5.28498635 -30.26244045 4.218502 -26 3 C-22.84622409 2.37112207 -19.67766474 1.86696073 -16.5 1.375 C-15.68402344 1.2409375 -14.86804688 1.106875 -14.02734375 0.96875 C-9.28782252 0.22320734 -4.79678077 -0.14184029 0 0 Z " fill="#141D6C" transform="translate(514,325)"/>
<path d="M0 0 C-0.62358861 5.73198434 -1.6383971 11.21255897 -2.99609375 16.8125 C-3.18969986 17.62565674 -3.38330597 18.43881348 -3.58277893 19.27661133 C-4.19702232 21.85204907 -4.81720145 24.42601476 -5.4375 27 C-5.84999238 28.72647104 -6.262105 30.45303285 -6.67382812 32.1796875 C-8.41363149 39.46235366 -10.17478819 46.73821672 -12 54 C-12.99402832 54.03963867 -13.98805664 54.07927734 -15.01220703 54.12011719 C-43.72400339 55.29876164 -71.891619 57.68564931 -100 64 C-101.05799805 64.23509277 -102.11599609 64.47018555 -103.20605469 64.71240234 C-106.68091248 65.48771459 -110.15346442 66.27244994 -113.625 67.0625 C-115.24390137 67.43060791 -115.24390137 67.43060791 -116.89550781 67.80615234 C-122.66095944 69.14318547 -128.32038359 70.63109044 -133.95458984 72.44702148 C-136 73 -136 73 -139 73 C-138.32488071 63.95340151 -136.12178309 55.24549574 -134.0625 46.4375 C-133.69811732 44.86013002 -133.33418167 43.2826567 -132.97070312 41.70507812 C-131.07850299 33.5177036 -131.07850299 33.5177036 -130.45901489 31.00411987 C-130.13936071 29.60846734 -129.87252364 28.20011095 -129.64718628 26.78616333 C-129.25561523 24.61743164 -129.25561523 24.61743164 -128 21 C-125.44897461 19.59912109 -125.44897461 19.59912109 -122 19 C-121.32687775 18.87071106 -120.65375549 18.74142212 -119.9602356 18.60821533 C-117.5845459 18.16551836 -115.20426233 17.78539819 -112.81640625 17.4140625 C-111.93240143 17.2722757 -111.04839661 17.13048889 -110.13760376 16.98440552 C-107.27992737 16.52681059 -104.42123663 16.07591896 -101.5625 15.625 C-97.64286722 14.99964964 -93.72377159 14.37096611 -89.8046875 13.7421875 C-88.85093735 13.58963501 -87.89718719 13.43708252 -86.91453552 13.27990723 C-79.99322288 12.16972552 -73.08679166 10.98997063 -66.1875 9.75 C-58.17719547 8.31609321 -50.15207282 7.18845351 -42.08203125 6.14794922 C-34.91222297 5.19465525 -27.85256835 3.8789534 -20.7824707 2.35742188 C-13.92402051 0.89684621 -7.03536558 -0.22694728 0 0 Z " fill="#46AECA" transform="translate(659,300)"/>
<path d="M0 0 C7.32306063 4.85445827 11.53459015 12.38244821 13.82421875 20.75 C14.68934692 29.80366685 14.27526629 37.72640114 9.82421875 45.75 C9.29828125 46.71679688 9.29828125 46.71679688 8.76171875 47.703125 C4.42142161 54.63554405 -2.99104825 59.01605376 -10.73046875 61.28125 C-19.91222181 63.04133046 -29.15427483 62.10483929 -37.36328125 57.53125 C-44.00596235 53.00214925 -49.14908794 45.95507994 -51.69921875 38.3046875 C-53.3887502 29.24769104 -53.75358525 19.03006569 -48.84375 10.95703125 C-36.3173515 -5.6177115 -18.49567492 -10.62588146 0 0 Z " fill="#276BA8" transform="translate(597.17578125,638.25)"/>
<path d="M0 0 C-2.81272786 2.81272786 -5.94272463 2.90848807 -9.7265625 3.55078125 C-11.33334848 3.84041075 -12.94011876 4.13012738 -14.546875 4.41992188 C-17.06227861 4.86380237 -19.57821902 5.30436559 -22.09472656 5.74194336 C-33.40467217 7.72220052 -44.11163063 10.37221281 -55 14 C-57.28546494 14.70668563 -59.57314644 15.40625396 -61.86328125 16.09765625 C-62.93513672 16.42443359 -64.00699219 16.75121094 -65.11132812 17.08789062 C-67.26440634 17.74340376 -69.41806366 18.39701746 -71.57226562 19.04882812 C-77.5610505 20.8784327 -83.46852903 22.83863106 -89.34008789 25.01538086 C-91.96966019 25.98876912 -94.60911598 26.92822176 -97.25390625 27.859375 C-130.25994966 39.56286019 -160.86973389 55.35833067 -187 79 C-187.680625 79.598125 -188.36125 80.19625 -189.0625 80.8125 C-197.81208974 88.93711905 -205.07391171 100.20748355 -206.33984375 112.2265625 C-206.54681978 119.29686363 -205.50443749 125.39603686 -203 132 C-212.10302571 127.63813351 -218.21341633 120.28709467 -222 111 C-222.4125 110.071875 -222.825 109.14375 -223.25 108.1875 C-225.5329663 98.48489324 -223.69475494 90.68469933 -219 82 C-207.06232133 63.17877674 -187.34131239 50.96903232 -168 41 C-167.26330078 40.61602051 -166.52660156 40.23204102 -165.76757812 39.83642578 C-141.59171489 27.37107853 -114.93525861 19.7159728 -88.4375 13.9375 C-87.6546463 13.7653598 -86.8717926 13.5932196 -86.06521606 13.41586304 C-65.07267914 8.81063838 -43.93700612 5.63334631 -22.66186523 2.66137695 C-21.55930893 2.50687073 -21.55930893 2.50687073 -20.43447876 2.34924316 C-18.42305175 2.06788447 -16.41136308 1.78839819 -14.3996582 1.5090332 C-12.34210599 1.20095447 -10.28910312 0.85473992 -8.25073242 0.43823242 C-5.47234561 -0.10273778 -2.8229813 -0.06565073 0 0 Z " fill="#2E8BBB" transform="translate(662,361)"/>
<path d="M0 0 C9.6525 -0.1546875 9.6525 -0.1546875 19.5 -0.3125 C21.51544922 -0.35802002 23.53089844 -0.40354004 25.60742188 -0.45043945 C27.22784772 -0.46505996 28.84829211 -0.47779692 30.46875 -0.48828125 C31.29149414 -0.51386108 32.11423828 -0.53944092 32.96191406 -0.5657959 C39.16249985 -0.57041493 43.17328347 1.11123031 48 5 C53.25831711 10.6734474 54.57632244 15.16558891 54.4453125 22.8203125 C53.62301978 28.69177106 50.74008127 33.61785728 46.265625 37.5078125 C44.625 38.625 44.625 38.625 42 40 C43.68760677 45.09331922 46.66899341 49.26474395 49.625 53.6875 C50.64218578 55.20946422 51.65542014 56.7340792 52.6640625 58.26171875 C53.11217285 58.93162842 53.5602832 59.60153809 54.02197266 60.29174805 C55 62 55 62 55 64 C50.12321897 64.80138115 45.84310406 65.11042106 41 64 C36.68730679 59.55440407 34.25441645 54.08069921 31.9375 48.390625 C30.80718528 45.97104506 30.13887184 44.62700507 28 43 C22.79155668 41.99407747 18.41226045 42 13 42 C13 49.26 13 56.52 13 64 C8.71 64 4.42 64 0 64 C0 42.88 0 21.76 0 0 Z " fill="#1E277E" transform="translate(422,635)"/>
<path d="M0 0 C3.96 0 7.92 0 12 0 C12.01458252 1.24088379 12.02916504 2.48176758 12.04418945 3.76025391 C12.10230723 8.37870621 12.17953947 12.99667784 12.26245117 17.61474609 C12.29563713 19.61076029 12.32368868 21.60686689 12.34643555 23.60302734 C12.38009793 26.4779384 12.43241977 29.35200743 12.48828125 32.2265625 C12.49467117 33.11429352 12.5010611 34.00202454 12.50764465 34.91665649 C12.62749097 40.00507939 13.17166641 43.59867357 16 48 C20.95621067 52.47267792 23.92625657 53.3161166 30.4609375 53.203125 C34.05710064 52.91543195 36.11870729 52.19527064 39 50 C42.97911522 44.28241514 43.5998445 38.83727543 43.609375 32.03125 C43.62591125 31.11033569 43.64244751 30.18942139 43.65948486 29.24060059 C43.70769628 26.3269974 43.72927583 23.4139151 43.75 20.5 C43.77818217 18.512995 43.80811272 16.52601399 43.83984375 14.5390625 C43.91344789 9.69275127 43.96318622 4.84672466 44 0 C47.96 0 51.92 0 56 0 C56.07456924 5.95903843 56.12879953 11.91780075 56.16479492 17.87719727 C56.17981245 19.90133399 56.20023261 21.92543855 56.22631836 23.94946289 C56.26301267 26.87133761 56.27979708 29.79277935 56.29296875 32.71484375 C56.30845261 33.60896469 56.32393646 34.50308563 56.33988953 35.42430115 C56.34231196 44.6205652 54.18169998 51.55281986 47.8359375 58.2734375 C40.8022364 64.88810959 34.27520726 65.47415658 24.83203125 65.265625 C15.85371411 64.64327478 10.5992366 61.3548821 4.69140625 54.70703125 C0.34144273 47.7450804 -0.43250348 40.77232777 -0.29296875 32.71484375 C-0.28660149 31.30230064 -0.28660149 31.30230064 -0.28010559 29.86122131 C-0.26346216 26.88634282 -0.22583772 23.91216986 -0.1875 20.9375 C-0.1724346 18.9069109 -0.15874946 16.87631107 -0.14648438 14.84570312 C-0.11360578 9.89686819 -0.0619244 4.94855325 0 0 Z " fill="#040721" transform="translate(350,634)"/>
<path d="M0 0 C1.65394526 1.16671088 3.24705739 2.41891369 4.82421875 3.6875 C3.48933747 7.28141114 1.86399152 10.44240696 -0.17578125 13.6875 C-0.74039063 13.40132812 -1.305 13.11515625 -1.88671875 12.8203125 C-9.16860405 9.21664913 -15.89091805 6.22368993 -24.17578125 7.6875 C-27.01652587 9.02572159 -27.01652587 9.02572159 -28.17578125 11.6875 C-28.58927894 15.29331779 -28.58927894 15.29331779 -27.17578125 18.6875 C-22.49451526 21.09282386 -17.86796206 22.35614426 -12.73828125 23.5625 C-5.31337227 25.44132241 0.0214085 27.74454924 5.32421875 33.3125 C7.91774282 39.14792915 7.69764632 44.96446111 5.76171875 51 C1.74908374 56.56591308 -2.48718967 59.92480258 -9.17578125 61.6875 C-20.98258548 62.88328508 -31.42460794 61.60851316 -40.92578125 53.875 C-41.66828125 53.153125 -42.41078125 52.43125 -43.17578125 51.6875 C-40.70078125 46.7375 -40.70078125 46.7375 -38.17578125 41.6875 C-34.63765599 43.45656263 -31.46760557 45.3997172 -28.17578125 47.56640625 C-24.27625498 49.75227352 -20.59953098 49.87114375 -16.17578125 49.9375 C-15.14453125 49.96328125 -14.11328125 49.9890625 -13.05078125 50.015625 C-9.80267356 49.64491706 -8.4610696 48.99434768 -6.17578125 46.6875 C-5.50911458 43.6875 -5.50911458 43.6875 -6.17578125 40.6875 C-9.63858422 37.09712008 -14.2554209 36.4556516 -18.92578125 35.3125 C-26.98001361 33.19595993 -33.33781524 31.32591796 -38.61328125 24.5625 C-41.134164 19.92407574 -41.69308025 15.90028222 -41.17578125 10.6875 C-38.99593299 4.01171471 -33.52279289 -0.56292574 -27.42578125 -3.75 C-18.0457492 -5.37346709 -8.31963347 -5.01866579 0 0 Z " fill="#2767A6" transform="translate(529.17578125,637.3125)"/>
<path d="M0 0 C16.5 0 33 0 50 0 C50 3.96 50 7.92 50 12 C37.46 12 24.92 12 12 12 C12 17.61 12 23.22 12 29 C23.22 29 34.44 29 46 29 C46 32.63 46 36.26 46 40 C34.78 40 23.56 40 12 40 C12 48.25 12 56.5 12 65 C8.04 65 4.08 65 0 65 C0 43.55 0 22.1 0 0 Z " fill="#3784B6" transform="translate(625,634)"/>
<path d="M0 0 C4.93608368 2.87938215 8.99158572 6.93629644 11.5625 12.078125 C12.73062166 28.81481889 12.73062166 28.81481889 7.5625 36.078125 C2.85349987 40.66638153 -1.78654144 42.36837229 -8.3125 42.453125 C-15.49999082 42.32083989 -18.77655954 40.32514139 -24.25 35.703125 C-29.14971485 29.82346717 -28.93101096 23.06378277 -28.80859375 15.71875 C-28.19106466 9.66046463 -26.06895144 6.59786388 -21.78125 2.4921875 C-15.60661235 -2.24344562 -7.19557421 -2.72140307 0 0 Z " fill="#F8FAFA" transform="translate(586.4375,645.921875)"/>
<path d="M0 0 C-3.27308064 2.18205376 -5.028453 2.44375008 -8.875 2.9375 C-15.70373198 3.91838146 -22.30859808 5.33054273 -29 7 C-30.16257324 7.28568848 -30.16257324 7.28568848 -31.34863281 7.57714844 C-74.08044443 18.13403681 -116.98623418 32.04993767 -151 61 C-152.20849609 61.97066406 -152.20849609 61.97066406 -153.44140625 62.9609375 C-159.37399428 67.87966531 -163.24630673 73.29624969 -167 80 C-167.639375 81.0725 -168.27875 82.145 -168.9375 83.25 C-171.0576663 90.73293989 -170.79309539 99.45164684 -169 107 C-169.66 107 -170.32 107 -171 107 C-176.46853022 100.12023617 -178.63685936 92.51836087 -178.34375 83.76171875 C-176.69722266 70.53336842 -166.5334528 60.47418027 -157 52 C-152.81554153 48.74604028 -148.46814811 45.83941267 -144 43 C-143.39897461 42.60844727 -142.79794922 42.21689453 -142.17871094 41.81347656 C-109.03775332 20.38151804 -68.55468929 9.55115671 -30 3 C-29.11199707 2.84901855 -28.22399414 2.69803711 -27.30908203 2.54248047 C-24.64556323 2.09784119 -21.98004209 1.6697795 -19.3125 1.25 C-18.52327148 1.12214111 -17.73404297 0.99428223 -16.92089844 0.86254883 C-11.25335697 0.01049885 -5.72612185 -0.13528047 0 0 Z " fill="#1E2873" transform="translate(603,363)"/>
<path d="M0 0 C17.82 0 35.64 0 54 0 C54 3.63 54 7.26 54 11 C47.07 11 40.14 11 33 11 C33 28.49 33 45.98 33 64 C29.04 64 25.08 64 21 64 C21 46.84 21 29.68 21 12 C14.07 12 7.14 12 0 12 C0 8.04 0 4.08 0 0 Z " fill="#439BBF" transform="translate(680,634)"/>
<path d="M0 0 C17.49 0 34.98 0 53 0 C53 3.3 53 6.6 53 10 C46.07 10 39.14 10 32 10 C32 27.82 32 45.64 32 64 C28.04 64 24.08 64 20 64 C20 46.18 20 28.36 20 10 C13.4 10 6.8 10 0 10 C0 6.7 0 3.4 0 0 Z " fill="#161C56" transform="translate(287,635)"/>
<path d="M0 0 C1.11823815 2.23647631 1.19396061 3.64891529 1.31640625 6.1328125 C1.37924805 7.34130859 1.37924805 7.34130859 1.44335938 8.57421875 C1.48267578 9.41597656 1.52199219 10.25773438 1.5625 11.125 C1.60568359 11.97449219 1.64886719 12.82398438 1.69335938 13.69921875 C1.79954236 15.79928223 1.90028497 17.89961948 2 20 C3.27846802 20.03758423 3.27846802 20.03758423 4.58276367 20.07592773 C7.76044966 20.17135569 10.93798894 20.27057124 14.11547852 20.37231445 C15.48782776 20.4154884 16.86022467 20.45717501 18.23266602 20.49731445 C20.21122068 20.55544392 22.1895997 20.6194571 24.16796875 20.68359375 C25.35672607 20.72025146 26.5454834 20.75690918 27.77026367 20.79467773 C30.61404847 20.97546411 33.22906805 21.35809408 36 22 C35.75 24.375 35.75 24.375 35 27 C32.9375 28.3125 32.9375 28.3125 31 29 C32.68760677 34.09331922 35.66899341 38.26474395 38.625 42.6875 C39.64218578 44.20946422 40.65542014 45.7340792 41.6640625 47.26171875 C42.11217285 47.93162842 42.5602832 48.60153809 43.02197266 49.29174805 C44 51 44 51 44 53 C39.12321897 53.80138115 34.84310406 54.11042106 30 53 C26.27925557 49.16459472 24.26231655 44.76994454 22 40 C21.0252077 38.42165079 20.029684 36.85559984 19 35.3125 C17 32 17 32 17 30 C11.72 30 6.44 30 1 30 C1 37.26 1 44.52 1 52 C-2.63 52 -6.26 52 -10 52 C-10.02468858 45.21899685 -10.04285456 38.43801978 -10.05493164 31.65698242 C-10.05996551 29.3493606 -10.06679305 27.04174197 -10.07543945 24.73413086 C-10.08754635 21.42040214 -10.09323773 18.10671552 -10.09765625 14.79296875 C-10.10281754 13.7585112 -10.10797882 12.72405365 -10.11329651 11.6582489 C-10.11337204 10.6974794 -10.11344757 9.7367099 -10.11352539 8.74682617 C-10.115746 7.90077316 -10.11796661 7.05472015 -10.12025452 6.18302917 C-10 4 -10 4 -9 1 C-5.8035914 -0.06546953 -3.34252724 -0.07427838 0 0 Z " fill="#080E3B" transform="translate(433,646)"/>
<path d="M0 0 C-0.11512153 1.72985242 -0.24255677 3.45888751 -0.375 5.1875 C-0.44460938 6.15042969 -0.51421875 7.11335938 -0.5859375 8.10546875 C-1.34609676 13.41941229 -1.34609676 13.41941229 -3 16 C-6.01434369 17.8828657 -9.23921336 19.22583758 -12.5 20.625 C-26.83087857 27.10655483 -39.85234517 35.23193067 -52.59375 44.41796875 C-55 46 -55 46 -57 46 C-57.12361364 42.32592804 -57.08579144 38.67473333 -57 35 C-57.03867187 34.20207031 -57.07734375 33.40414062 -57.1171875 32.58203125 C-56.96937391 29.7982087 -56.52148413 28.35680875 -55 26 C-50.09046889 22.20855189 -44.56728168 19.68677335 -39 17 C-37.22539348 16.12332088 -35.45082117 15.2465715 -33.67695618 14.36839294 C-4.60174841 0 -4.60174841 0 0 0 Z " fill="#063D6D" transform="translate(562,395)"/>
<path d="M0 0 C1.1636261 3.49087829 0.78987653 4.95003637 0.03125 8.51171875 C-0.20706543 9.64778564 -0.44538086 10.78385254 -0.69091797 11.9543457 C-0.95791504 13.18628662 -1.22491211 14.41822754 -1.5 15.6875 C-1.76828613 16.95360107 -2.03657227 18.21970215 -2.31298828 19.52416992 C-3.19631593 23.68547278 -4.09709479 27.84290791 -5 32 C-5.1599646 32.73802856 -5.3199292 33.47605713 -5.48474121 34.2364502 C-7.63616922 44.16212566 -9.80882438 54.08302453 -12 64 C-17.28808303 62.23730566 -19.56667694 56.74985684 -22.0546875 51.9765625 C-25.22039867 44.5899031 -24.9075176 36.80663136 -22.10546875 29.34765625 C-16.87387437 18.23745052 -8.87770039 8.39199034 0 0 Z " fill="#0F1850" transform="translate(488,436)"/>
<path d="M0 0 C0.71783637 3.53842576 0.8947215 6.48143231 0 10 C-3.22179843 13.3752174 -7.01367695 15.61537029 -11 18 C-12.71406362 19.11624983 -14.42304976 20.24036651 -16.125 21.375 C-16.84945313 21.83648437 -17.57390625 22.29796875 -18.3203125 22.7734375 C-20.14595044 23.9097341 -20.14595044 23.9097341 -21 26 C-20.34515625 26.21527344 -19.6903125 26.43054688 -19.015625 26.65234375 C-14.91263795 28.48593252 -11.41871986 30.98581816 -7.75 33.5625 C-6.65171875 34.32336914 -6.65171875 34.32336914 -5.53125 35.09960938 C-0.17766907 38.82233093 -0.17766907 38.82233093 1 40 C1.07205511 41.68608966 1.08386068 43.37500659 1.0625 45.0625 C1.05347656 45.98160156 1.04445313 46.90070313 1.03515625 47.84765625 C1.02355469 48.55792969 1.01195312 49.26820313 1 50 C-2.04095179 48.54563175 -4.85173968 46.8832629 -7.6875 45.0625 C-8.64011719 44.45148438 -9.59273438 43.84046875 -10.57421875 43.2109375 C-11.71637203 42.47430893 -12.85827553 41.73729302 -14 41 C-14.7007666 40.54786133 -15.4015332 40.09572266 -16.12353516 39.62988281 C-33.9704214 28.11056385 -33.9704214 28.11056385 -34.73046875 25.26953125 C-33.72971955 20.79024205 -31.62892049 19.7622768 -27.90209961 17.30541992 C-27.04753174 16.77150635 -26.19296387 16.23759277 -25.3125 15.6875 C-23.56996125 14.55262248 -21.82777536 13.41720298 -20.0859375 12.28125 C-19.22323242 11.72824219 -18.36052734 11.17523438 -17.47167969 10.60546875 C-14.06130468 8.39027456 -10.74939374 6.04624047 -7.4375 3.6875 C-2.24057451 0 -2.24057451 0 0 0 Z " fill="#B9BABB" transform="translate(395,448)"/>
<path d="M0 0 C3.42777147 0.64319739 5.78249443 1.96873261 8.6875 3.875 C9.64140625 4.49761719 10.5953125 5.12023437 11.578125 5.76171875 C12.37959961 6.28838135 12.37959961 6.28838135 13.19726562 6.82568359 C15.24095902 8.15696274 17.29923554 9.4638531 19.359375 10.76953125 C20.88550417 11.74205019 22.41154594 12.71470632 23.9375 13.6875 C25.03807739 14.38238525 25.03807739 14.38238525 26.16088867 15.09130859 C33.70788148 19.93343271 33.70788148 19.93343271 36 23 C35.76348113 25.61719002 35.32126788 26.70755463 33.36450195 28.48876953 C32.66284912 28.94880371 31.96119629 29.40883789 31.23828125 29.8828125 C30.45501465 30.40593018 29.67174805 30.92904785 28.86474609 31.46801758 C28.02250488 32.01482178 27.18026367 32.56162598 26.3125 33.125 C24.58114831 34.27601674 22.85068771 35.42837491 21.12109375 36.58203125 C20.2585498 37.1538916 19.39600586 37.72575195 18.50732422 38.31494141 C14.2992259 41.14301293 10.19980544 44.11829683 6.1027832 47.10400391 C2.10092182 50 2.10092182 50 1 50 C0.29782572 46.14158777 0.10259778 42.83804225 1 39 C4.17270492 35.52006853 7.93840788 33.33184372 12 31 C13.44632813 30.13181641 13.44632813 30.13181641 14.921875 29.24609375 C16.63581007 28.21822807 18.36131663 27.209225 20.1015625 26.2265625 C22.14456186 25.13468716 22.14456186 25.13468716 23 23 C22.35546875 22.78472656 21.7109375 22.56945312 21.046875 22.34765625 C16.8201185 20.47812934 13.10308083 17.97481545 9.25 15.4375 C8.47011719 14.93025391 7.69023438 14.42300781 6.88671875 13.90039062 C1.16171288 10.16171288 1.16171288 10.16171288 0 9 C-0.07179964 7.48071962 -0.08392007 5.95832518 -0.0625 4.4375 C-0.05347656 3.61121094 -0.04445313 2.78492188 -0.03515625 1.93359375 C-0.02355469 1.29550781 -0.01195312 0.65742188 0 0 Z " fill="#BDBDBE" transform="translate(610,448)"/>
<path d="M0 0 C3.96 0 7.92 0 12 0 C12.02505615 1.43311523 12.0501123 2.86623047 12.07592773 4.34277344 C12.17007369 9.65796914 12.27027703 14.97303635 12.37231445 20.28808594 C12.41563606 22.58883662 12.45731313 24.88961888 12.49731445 27.19042969 C12.55508395 30.49684161 12.61875949 33.803095 12.68359375 37.109375 C12.70030624 38.13867126 12.71701874 39.16796753 12.73423767 40.22845459 C12.75418289 41.18914856 12.77412811 42.14984253 12.79467773 43.13964844 C12.81022202 43.98348083 12.8257663 44.82731323 12.84178162 45.69671631 C12.99407571 47.91375644 13.38782088 49.86850379 14 52 C13.01 52.495 13.01 52.495 12 53 C11.34 52.67 10.68 52.34 10 52 C10 51.34 10 50.68 10 50 C9.1028125 50.495 9.1028125 50.495 8.1875 51 C6 52 6 52 3 52 C0.36024698 45.43213885 -0.41495736 39.75912083 -0.29296875 32.71484375 C-0.28660149 31.30230064 -0.28660149 31.30230064 -0.28010559 29.86122131 C-0.26346216 26.88634282 -0.22583772 23.91216986 -0.1875 20.9375 C-0.1724346 18.9069109 -0.15874946 16.87631107 -0.14648438 14.84570312 C-0.11360578 9.89686819 -0.0619244 4.94855325 0 0 Z " fill="#06092D" transform="translate(350,634)"/>
<path d="M0 0 C3.89699187 -0.13499972 7.78930653 -0.2341331 11.6875 -0.3125 C13.34168945 -0.3753418 13.34168945 -0.3753418 15.02929688 -0.43945312 C23.05700879 -0.56071766 23.05700879 -0.56071766 25.85009766 1.10009766 C27.20703125 2.45703125 27.20703125 2.45703125 29 5 C29.33 5.33 29.66 5.66 30 6 C30.58638743 13.03664921 30.58638743 13.03664921 28.25 16.875 C24.55483511 20.36487795 21.85668122 21.25414746 16.796875 21.1953125 C15.32734375 21.18564453 15.32734375 21.18564453 13.828125 21.17578125 C12.81234375 21.15902344 11.7965625 21.14226563 10.75 21.125 C9.71875 21.11597656 8.6875 21.10695313 7.625 21.09765625 C5.08323384 21.07412138 2.54158728 21.03825131 0 21 C0 14.07 0 7.14 0 0 Z " fill="#F4F5F6" transform="translate(434,645)"/>
<path d="M0 0 C4.75 0.875 4.75 0.875 7 2 C7 1.34 7 0.68 7 0 C7.66 0 8.32 0 9 0 C9 16.83 9 33.66 9 51 C5.37 51 1.74 51 -2 51 C-2.04948091 44.5404573 -2.08575817 38.08102523 -2.10986328 31.62133789 C-2.11991357 29.42437823 -2.13355592 27.22743193 -2.15087891 25.03051758 C-2.17516969 21.87057192 -2.18649294 18.71080332 -2.1953125 15.55078125 C-2.20563507 14.57039383 -2.21595764 13.59000641 -2.22659302 12.57991028 C-2.22797609 4.15143641 -2.22797609 4.15143641 0 0 Z " fill="#080C2C" transform="translate(309,647)"/>
<path d="M0 0 C1.32 0.66 2.64 1.32 4 2 C4 2.99 4 3.98 4 5 C3.195625 5.226875 2.39125 5.45375 1.5625 5.6875 C0.716875 6.120625 -0.12875 6.55375 -1 7 C-1.81931089 9.51176074 -1.81931089 9.51176074 -2 12 C-2.33 12.33 -2.66 12.66 -3 13 C-0.69 13.99 1.62 14.98 4 16 C-0.19931199 20.87120191 -4.15728111 22.73187992 -10.4375 23.32421875 C-18.21036883 23.55144979 -25.34613296 23.37185488 -32 19 C-34.61984334 16.52202543 -36.86970039 13.90623656 -39 11 C-35.25 8 -35.25 8 -33 8 C-33 8.66 -33 9.32 -33 10 C-32.01 10 -31.02 10 -30 10 C-30.20625 9.21625 -30.4125 8.4325 -30.625 7.625 C-30.74875 6.75875 -30.8725 5.8925 -31 5 C-30.34 4.34 -29.68 3.68 -29 3 C-27.828125 4.49739583 -26.65625 5.99479167 -25.484375 7.4921875 C-23.11265686 9.90135382 -20.98141676 10.87529853 -17.6328125 11.30078125 C-12.39607942 11.32525197 -8.31898714 11.29065687 -4 8 C-2.38259173 5.43741876 -1.13345277 2.80696244 0 0 Z " fill="#0A0E30" transform="translate(393,676)"/>
<path d="M0 0 C0.33 0.66 0.66 1.32 1 2 C3.02463255 2.65213292 3.02463255 2.65213292 5 3 C5 3.66 5 4.32 5 5 C4.34 5 3.68 5 3 5 C3 6.32 3 7.64 3 9 C1.34904069 10.38141493 -0.30666563 11.75763439 -1.98828125 13.1015625 C-5.87346095 16.76796509 -8.36808484 21.39584867 -11 26 C-11.639375 27.0725 -12.27875 28.145 -12.9375 29.25 C-15.0576663 36.73293989 -14.79309539 45.45164684 -13 53 C-13.66 53 -14.32 53 -15 53 C-20.46853022 46.12023617 -22.63685936 38.51836087 -22.34375 29.76171875 C-21.18237484 20.43112517 -10.66995162 0 0 0 Z " fill="#131A59" transform="translate(447,417)"/>
<path d="M0 0 C4.26211235 4.26211235 5.20298483 8.731605 5.25 14.57421875 C5.18411767 16.61261799 5.10036981 18.65050764 5 20.6875 C4.98066406 21.71939453 4.96132813 22.75128906 4.94140625 23.81445312 C4.62114729 31.29201469 4.62114729 31.29201469 1.625 34.70703125 C-1 36 -1 36 -4 36 C-4.33 36.66 -4.66 37.32 -5 38 C-8.41377562 31.79729162 -9.38698009 26.15916623 -9.375 19.1875 C-9.37693359 18.09417358 -9.37693359 18.09417358 -9.37890625 16.97875977 C-9.27594168 11.89078912 -8.8716126 7.95206654 -5.2734375 4.19921875 C-4.33371094 3.45091797 -4.33371094 3.45091797 -3.375 2.6875 C-2.74335937 2.17574219 -2.11171875 1.66398438 -1.4609375 1.13671875 C-0.73777344 0.57404297 -0.73777344 0.57404297 0 0 Z " fill="#24619F" transform="translate(554,646)"/>
<path d="M0 0 C-3.27308064 2.18205376 -5.028453 2.44375008 -8.875 2.9375 C-15.70373198 3.91838146 -22.30859808 5.33054273 -29 7 C-29.77504883 7.19045898 -30.55009766 7.38091797 -31.34863281 7.57714844 C-47.12250288 11.47408094 -62.58890642 16.19247457 -78.07421875 21.08789062 C-81.36910779 22.11506898 -84.67370164 23.08037633 -88 24 C-88.33 22.68 -88.66 21.36 -89 20 C-90.65 20.66 -92.3 21.32 -94 22 C-94.66 21.34 -95.32 20.68 -96 20 C-74.42002698 12.40205116 -52.55368914 6.83229005 -30 3 C-29.11199707 2.84901855 -28.22399414 2.69803711 -27.30908203 2.54248047 C-24.64556323 2.09784119 -21.98004209 1.6697795 -19.3125 1.25 C-18.52327148 1.12214111 -17.73404297 0.99428223 -16.92089844 0.86254883 C-11.25335697 0.01049885 -5.72612185 -0.13528047 0 0 Z " fill="#254387" transform="translate(603,363)"/>
<path d="M0 0 C5.64430652 1.47242779 5.64430652 1.47242779 7.1640625 3.7265625 C9.22619243 9.33478503 9.08353779 15.57463925 6.65625 21.0078125 C5.19643326 23.42477324 3.68400916 25.73460673 2 28 C1.34 27.34 0.68 26.68 0 26 C-7.14640314 24.90223105 -14.34453857 24.70289822 -21.5625 24.4375 C-22.66658203 24.39431641 -23.77066406 24.35113281 -24.90820312 24.30664062 C-27.60537185 24.20155613 -30.30261703 24.09940587 -33 24 C-33 23.67 -33 23.34 -33 23 C-32.39526855 22.9906543 -31.79053711 22.98130859 -31.16748047 22.97167969 C-28.4025212 22.91768278 -25.63920094 22.83409606 -22.875 22.75 C-21.92367188 22.73582031 -20.97234375 22.72164062 -19.9921875 22.70703125 C-14.07414535 22.50154368 -10.51455417 21.93728331 -6 18 C-4.45590303 14.91180606 -5.03497866 11.80997955 -5.16015625 8.41015625 C-5 6 -5 6 -3 3 C-2.34 3 -1.68 3 -1 3 C-0.67 2.01 -0.34 1.02 0 0 Z " fill="#172068" transform="translate(468,643)"/>
<path d="M0 0 C3.96 0 7.92 0 12 0 C12 12.87 12 25.74 12 39 C11.67 39 11.34 39 11 39 C10.67 32.07 10.34 25.14 10 18 C9.34 18 8.68 18 8 18 C8 17.01 8 16.02 8 15 C7.34 15 6.68 15 6 15 C5.34 21.6 4.68 28.2 4 35 C3.34 34.67 2.68 34.34 2 34 C1.67 36.97 1.34 39.94 1 43 C0.67 43 0.34 43 0 43 C0 28.81 0 14.62 0 0 Z " fill="#0A0D38" transform="translate(350,634)"/>
<path d="M0 0 C17.16 0 34.32 0 52 0 C51.67 1.98 51.34 3.96 51 6 C44.73 6 38.46 6 32 6 C32 5.01 32 4.02 32 3 C31.01 3.495 31.01 3.495 30 4 C28.60798105 4.17860936 27.21096613 4.31955707 25.8125 4.4375 C22.84622279 4.72988345 20.49845553 5.15789363 17.625 6.0625 C12.71758826 7.33165821 8.03957102 7.16403667 3 7 C3 7.66 3 8.32 3 9 C2.34 9 1.68 9 1 9 C0.67 6.03 0.34 3.06 0 0 Z " fill="#090E4C" transform="translate(287,635)"/>
<path d="M0 0 C1.14182521 3.42547564 0.81715222 4.75014278 0.0390625 8.21875 C-0.29738281 9.74048828 -0.29738281 9.74048828 -0.640625 11.29296875 C-1.00414062 12.88044922 -1.00414062 12.88044922 -1.375 14.5 C-1.60960937 15.55832031 -1.84421875 16.61664063 -2.0859375 17.70703125 C-3.81928692 25.45786076 -3.81928692 25.45786076 -5 29 C-6.32 28.67 -7.64 28.34 -9 28 C-9 27.01 -9 26.02 -9 25 C-12.16717283 26.58358642 -13.73268318 27.45263699 -15.3125 30.6875 C-15.539375 31.450625 -15.76625 32.21375 -16 33 C-16.99 32.67 -17.98 32.34 -19 32 C-19.85372365 28.80889703 -20.50201326 26.20714974 -19.19628906 23.06738281 C-17.92935947 21.00510876 -16.56986638 19.06678057 -15.125 17.125 C-14.62701904 16.42826172 -14.12903809 15.73152344 -13.6159668 15.01367188 C-9.56451199 9.46815041 -5.1405496 4.56937742 0 0 Z " fill="#030622" transform="translate(488,436)"/>
<path d="M0 0 C11.88 0 23.76 0 36 0 C36 0.99 36 1.98 36 3 C32.08071716 3.93037181 28.46025545 4.10445226 24.4375 4.0625 C22.76494141 4.04896484 22.76494141 4.04896484 21.05859375 4.03515625 C19.54458984 4.01775391 19.54458984 4.01775391 18 4 C16.68 4 15.36 4 14 4 C10.66666667 4 7.33333333 4 4 4 C4 5.98 4 7.96 4 10 C5.98 10 7.96 10 10 10 C9.34 10.66 8.68 11.32 8 12 C7.01 11.67 6.02 11.34 5 11 C4.67 11.66 4.34 12.32 4 13 C3.34 12.67 2.68 12.34 2 12 C1.67 28.83 1.34 45.66 1 63 C4.63 63 8.26 63 12 63 C12 55.74 12 48.48 12 41 C17.28 41 22.56 41 28 41 C28 41.33 28 41.66 28 42 C23.05 42 18.1 42 13 42 C13 49.26 13 56.52 13 64 C8.71 64 4.42 64 0 64 C0 42.88 0 21.76 0 0 Z " fill="#464D82" transform="translate(422,635)"/>
<path d="M0 0 C3.60199597 3.39194008 6.02545464 7.42344883 8.6875 11.5625 C9.19861328 12.34302734 9.70972656 13.12355469 10.23632812 13.92773438 C10.96045898 15.04825195 10.96045898 15.04825195 11.69921875 16.19140625 C12.14096436 16.87404541 12.58270996 17.55668457 13.0378418 18.26000977 C14 20 14 20 14 22 C9.17560887 22.66243373 4.7943353 22.96723231 0 22 C-3.35194677 18.79539155 -5.28730508 15.28817599 -7 11 C-7 10.34 -7 9.68 -7 9 C-6.34 9 -5.68 9 -5 9 C-4.690625 8.38125 -4.38125 7.7625 -4.0625 7.125 C-3.375 5.75 -2.6875 4.375 -2 3 C-1.34 3 -0.68 3 0 3 C0 2.01 0 1.02 0 0 Z " fill="#141B4B" transform="translate(463,677)"/>
<path d="M0 0 C3.96 0 7.92 0 12 0 C12 5.61 12 11.22 12 17 C8.37 17 4.74 17 1 17 C1 24.59 1 32.18 1 40 C0.67 40 0.34 40 0 40 C0 26.8 0 13.6 0 0 Z " fill="#272F80" transform="translate(394,634)"/>
<path d="M0 0 C0.66 0 1.32 0 2 0 C2 12.21 2 24.42 2 37 C2.66 37.33 3.32 37.66 4 38 C3.34 41.96 2.68 45.92 2 50 C4.64 50 7.28 50 10 50 C10 50.33 10 50.66 10 51 C6.37 51 2.74 51 -1 51 C-1.02468858 44.21899685 -1.04285456 37.43801978 -1.05493164 30.65698242 C-1.05996551 28.3493606 -1.06679305 26.04174197 -1.07543945 23.73413086 C-1.08754635 20.42040214 -1.09323773 17.10671552 -1.09765625 13.79296875 C-1.10281754 12.7585112 -1.10797882 11.72405365 -1.11329651 10.6582489 C-1.11337204 9.6974794 -1.11344757 8.7367099 -1.11352539 7.74682617 C-1.115746 6.90077316 -1.11796661 6.05472015 -1.12025452 5.18302917 C-1 3 -1 3 0 0 Z " fill="#030724" transform="translate(424,647)"/>
<path d="M0 0 C2.475 0.495 2.475 0.495 5 1 C4.67 1.99 4.34 2.98 4 4 C-1.3769322 6.20018889 -7.28454981 6.20783455 -13 6 C-13 6.99 -13 7.98 -13 9 C-14.04800781 9.05607422 -14.04800781 9.05607422 -15.1171875 9.11328125 C-16.48230469 9.21189453 -16.48230469 9.21189453 -17.875 9.3125 C-19.23238281 9.39951172 -19.23238281 9.39951172 -20.6171875 9.48828125 C-23.36221601 9.7882039 -23.36221601 9.7882039 -25 13 C-25.33 12.34 -25.66 11.68 -26 11 C-29.02934491 10.34227572 -29.02934491 10.34227572 -32 10 C-32 8.02 -32 6.04 -32 4 C-25.07 3.01 -25.07 3.01 -18 2 C-18 2.66 -18 3.32 -18 4 C-16.97326172 3.75443359 -16.97326172 3.75443359 -15.92578125 3.50390625 C-12.6256722 2.93552966 -9.53445931 2.90369233 -6.1875 2.9375 C-5.02605469 2.94652344 -3.86460937 2.95554687 -2.66796875 2.96484375 C-1.78753906 2.97644531 -0.90710938 2.98804688 0 3 C0 2.01 0 1.02 0 0 Z " fill="#182077" transform="translate(458,635)"/>
<path d="M0 0 C-2.85670058 2.85670058 -6.12863204 2.95588377 -9.97265625 3.62109375 C-10.76973495 3.76652115 -11.56681366 3.91194855 -12.38804626 4.06178284 C-14.94491298 4.52782933 -17.5034345 4.98369335 -20.0625 5.4375 C-22.59648627 5.88814217 -25.12989346 6.34125776 -27.66197205 6.80250549 C-29.23698024 7.08934692 -30.81307679 7.37030211 -32.39039612 7.64414978 C-37.12661191 8.50576754 -41.53252416 9.76388215 -46.05125427 11.42982483 C-48.64246892 12.18797723 -50.48928411 11.94151846 -53 11 C-53.33 10.67 -53.66 10.34 -54 10 C-56.05396726 10.40929986 -56.05396726 10.40929986 -58 11 C-58.33 10.01 -58.66 9.02 -59 8 C-58.4097554 7.91452408 -57.8195108 7.82904816 -57.21138 7.74098206 C-51.06296751 6.85033471 -44.91482905 5.95781377 -38.7668457 5.06420898 C-36.47297007 4.73104661 -34.1790252 4.39836051 -31.88500977 4.06616211 C-28.58591651 3.58833284 -25.28707677 3.10878613 -21.98828125 2.62890625 C-20.96414627 2.48095108 -19.94001129 2.33299591 -18.88484192 2.18055725 C-17.92422348 2.04048752 -16.96360504 1.90041779 -15.97387695 1.75610352 C-14.71145927 1.57290306 -14.71145927 1.57290306 -13.42353821 1.38600159 C-11.74056698 1.11795153 -10.06441345 0.80476837 -8.39616394 0.45664978 C-5.56214307 -0.08344474 -2.87809002 -0.06693233 0 0 Z " fill="#5BBCD2" transform="translate(662,361)"/>
<path d="M0 0 C0.66 0 1.32 0 2 0 C3.19388403 34.69566704 3.19388403 34.69566704 3 49 C3.99 49.33 4.98 49.66 6 50 C2.7 50 -0.6 50 -4 50 C-2.02 49.505 -2.02 49.505 0 49 C0 32.83 0 16.66 0 0 Z " fill="#010616" transform="translate(311,648)"/>
<path d="M0 0 C3.96 0 7.92 0 12 0 C12 12.87 12 25.74 12 39 C11.67 39 11.34 39 11 39 C11 30.09 11 21.18 11 12 C10.01 12 9.02 12 8 12 C8 9.03 8 6.06 8 3 C7.01 3 6.02 3 5 3 C5.04125 4.11375 5.0825 5.2275 5.125 6.375 C5 10 5 10 3 12 C3 11.01 3 10.02 3 9 C2.01 9.33 1.02 9.66 0 10 C0 6.7 0 3.4 0 0 Z " fill="#394082" transform="translate(350,634)"/>
<path d="M0 0 C1.15172095 3.45516285 0.79718066 4.82220244 0.00390625 8.32421875 C-0.22490234 9.35224609 -0.45371094 10.38027344 -0.68945312 11.43945312 C-0.93630859 12.51130859 -1.18316406 13.58316406 -1.4375 14.6875 C-1.68048828 15.77095703 -1.92347656 16.85441406 -2.17382812 17.97070312 C-2.77551699 20.64880847 -3.38450297 23.32504042 -4 26 C-4.33 26 -4.66 26 -5 26 C-5 24.02 -5 22.04 -5 20 C-5.66 20.33 -6.32 20.66 -7 21 C-7 19.35 -7 17.7 -7 16 C-7.99 15.67 -8.98 15.34 -10 15 C-10.66 14.34 -11.32 13.68 -12 13 C-10.56354149 11.39490066 -9.12579294 9.79095576 -7.6875 8.1875 C-6.88699219 7.29417969 -6.08648437 6.40085937 -5.26171875 5.48046875 C-3.54775419 3.60073214 -1.82122396 1.77407253 0 0 Z " fill="#0E153D" transform="translate(488,436)"/>
<path d="M0 0 C-3.27308064 2.18205376 -5.028453 2.44375008 -8.875 2.9375 C-15.69695911 3.90558289 -22.30683557 5.38413545 -29 7 C-31.43693615 7.56493778 -33.87442254 8.12750821 -36.3125 8.6875 C-37.94638672 9.06455078 -37.94638672 9.06455078 -39.61328125 9.44921875 C-40.40089844 9.63097656 -41.18851563 9.81273437 -42 10 C-41.67 9.34 -41.34 8.68 -41 8 C-42.65 7.67 -44.3 7.34 -46 7 C-42.44543211 4.90508565 -39.01192396 4.35275511 -34.9609375 3.7109375 C-34.28004059 3.60278717 -33.59914368 3.49463684 -32.89761353 3.38320923 C-31.45749112 3.15643661 -30.01682876 2.93307005 -28.57568359 2.71289062 C-26.40150689 2.37906984 -24.23013791 2.03017542 -22.05859375 1.6796875 C-14.65866049 0.51422828 -7.51258017 -0.2804303 0 0 Z " fill="#346599" transform="translate(603,363)"/>
<path d="M0 0 C-2.29677317 3.44515976 -3.12496114 3.65462366 -6.9375 4.859375 C-7.91460938 5.17003906 -8.89171875 5.48070312 -9.8984375 5.80078125 C-10.92195312 6.11402344 -11.94546875 6.42726563 -13 6.75 C-14.02351562 7.07871094 -15.04703125 7.40742188 -16.1015625 7.74609375 C-23.73462865 10.13268567 -23.73462865 10.13268567 -26 9 C-25.67 8.01 -25.34 7.02 -25 6 C-25.99 5.34 -26.98 4.68 -28 4 C-18.60429865 1.53266459 -9.80679167 -0.76251512 0 0 Z " fill="#1D4785" transform="translate(563,370)"/>
<path d="M0 0 C0.33 0.66 0.66 1.32 1 2 C3.02463255 2.65213292 3.02463255 2.65213292 5 3 C5 3.66 5 4.32 5 5 C4.34 5 3.68 5 3 5 C3 6.32 3 7.64 3 9 C1.46875 10.484375 1.46875 10.484375 -0.5 11.75 C-1.1496875 12.17796875 -1.799375 12.6059375 -2.46875 13.046875 C-3.22671875 13.51867187 -3.22671875 13.51867187 -4 14 C-4.33 12.68 -4.66 11.36 -5 10 C-5.66 10 -6.32 10 -7 10 C-7.66 8.68 -8.32 7.36 -9 6 C-8.07213211 4.99105628 -7.13231567 3.99309093 -6.1875 3 C-5.66542969 2.443125 -5.14335937 1.88625 -4.60546875 1.3125 C-3 0 -3 0 0 0 Z " fill="#0D155B" transform="translate(447,417)"/>
<path d="M0 0 C3.92443627 1.86410723 5.6548837 5.34808779 7.5 9.1875 C7.5 9.8475 7.5 10.5075 7.5 11.1875 C5.8973218 11.29574843 4.29254252 11.37320645 2.6875 11.4375 C1.79417969 11.48390625 0.90085937 11.5303125 -0.01953125 11.578125 C-2.5 11.1875 -2.5 11.1875 -4.32421875 9.296875 C-5.5 7.1875 -5.5 7.1875 -5.5 5.1875 C-6.16 5.1875 -6.82 5.1875 -7.5 5.1875 C-7.5 4.5275 -7.5 3.8675 -7.5 3.1875 C-4.96781533 1.2341004 -3.21002645 0.24075198 0 0 Z " fill="#080E35" transform="translate(468.5,686.8125)"/>
<path d="M0 0 C0.33 0 0.66 0 1 0 C1.45732667 5.71658336 0.52273754 8.48649253 -3 13 C-3.66 12.34 -4.32 11.68 -5 11 C-12.14640314 9.90223105 -19.34453857 9.70289822 -26.5625 9.4375 C-27.66658203 9.39431641 -28.77066406 9.35113281 -29.90820312 9.30664062 C-32.60537185 9.20155613 -35.30261703 9.09940587 -38 9 C-38 8.67 -38 8.34 -38 8 C-29.09 7.67 -20.18 7.34 -11 7 C-11 6.34 -11 5.68 -11 5 C-9.68 5 -8.36 5 -7 5 C-6.01 4.67 -5.02 4.34 -4 4 C-4.33 4.99 -4.66 5.98 -5 7 C-4.34 7 -3.68 7 -3 7 C-2.01 4.69 -1.02 2.38 0 0 Z " fill="#141D5B" transform="translate(473,658)"/>
<path d="M0 0 C0.33 0 0.66 0 1 0 C1.33 3.3 1.66 6.6 2 10 C2.28875 8.535625 2.5775 7.07125 2.875 5.5625 C3.3671875 3.06640625 3.3671875 3.06640625 4 1 C4.66 0.67 5.32 0.34 6 0 C6 6.27 6 12.54 6 19 C4 19 2 19 0 19 C0 12.73 0 6.46 0 0 Z " fill="#030622" transform="translate(351,658)"/>
<path d="M0 0 C2.97 0 5.94 0 9 0 C8.01 0.495 8.01 0.495 7 1 C7 3.97 7 6.94 7 10 C7.99 10 8.98 10 10 10 C10 11.65 10 13.3 10 15 C9.01 15.33 8.02 15.66 7 16 C6.67 14.02 6.34 12.04 6 10 C5.34 10 4.68 10 4 10 C3.67 12.31 3.34 14.62 3 17 C2.67 17 2.34 17 2 17 C2 15.02 2 13.04 2 11 C1.34 11 0.68 11 0 11 C-0.33 11.66 -0.66 12.32 -1 13 C-1 11.35 -1 9.7 -1 8 C0.32 8 1.64 8 3 8 C3.33 5.69 3.66 3.38 4 1 C2.68 0.67 1.36 0.34 0 0 Z " fill="#0F1457" transform="translate(351,636)"/>
<path d="M0 0 C-0.33 0.99 -0.66 1.98 -1 3 C-4.0625 4.1875 -4.0625 4.1875 -7 5 C-6.97679687 5.64066406 -6.95359375 6.28132813 -6.9296875 6.94140625 C-6.81559137 12.40987096 -7.20208096 16.83098277 -9 22 C-9.66 22 -10.32 22 -11 22 C-11.33 22.99 -11.66 23.98 -12 25 C-12.50342364 10.03713063 -12.50342364 10.03713063 -10 5 C-7.15879181 2.42966971 -3.94046969 0 0 0 Z " fill="#0E3C67" transform="translate(517,416)"/>
<path d="M0 0 C2.26273207 3.55818936 2.07331744 6.12547951 1.625 10.25 C1.51414062 11.32765625 1.40328125 12.4053125 1.2890625 13.515625 C1.19367188 14.33546875 1.09828125 15.1553125 1 16 C0.34 15.67 -0.32 15.34 -1 15 C-1.99 16.485 -1.99 16.485 -3 18 C-3.66 18 -4.32 18 -5 18 C-5.48321946 11.35573245 -4.18443566 6.84452648 -1 1 C-0.67 0.67 -0.34 0.34 0 0 Z " fill="#0D1650" transform="translate(379,374)"/>
<path d="M0 0 C0.99 0 1.98 0 3 0 C3 1.32 3 2.64 3 4 C3.66 4.33 4.32 4.66 5 5 C4.34 8.96 3.68 12.92 3 17 C5.64 17 8.28 17 11 17 C11 17.33 11 17.66 11 18 C7.37 18 3.74 18 0 18 C0 12.06 0 6.12 0 0 Z " fill="#010419" transform="translate(423,680)"/>
<path d="M0 0 C2.475 0.99 2.475 0.99 5 2 C4.46760392 6.52536666 2.72876727 9.38839627 0 13 C-0.99 13.66 -1.98 14.32 -3 15 C-3 14.34 -3 13.68 -3 13 C-3.66 13 -4.32 13 -5 13 C-4.39254603 8.14036821 -2.27241033 4.2594482 0 0 Z M2 2 C3 5 3 5 3 5 Z " fill="#080B36" transform="translate(400,677)"/>
<path d="M0 0 C0 1.98 0 3.96 0 6 C-3.63 6 -7.26 6 -11 6 C-11 13.59 -11 21.18 -11 29 C-11.33 29 -11.66 29 -12 29 C-12.02898816 25.06251542 -12.04679464 21.12505821 -12.0625 17.1875 C-12.07087891 16.06794922 -12.07925781 14.94839844 -12.08789062 13.79492188 C-12.09111328 12.72177734 -12.09433594 11.64863281 -12.09765625 10.54296875 C-12.10289307 9.55321045 -12.10812988 8.56345215 -12.11352539 7.54370117 C-12 5 -12 5 -11 2 C-9.35440244 1.66550467 -7.70851502 1.33243501 -6.0625 1 C-5.14597656 0.814375 -4.22945313 0.62875 -3.28515625 0.4375 C-1 0 -1 0 0 0 Z " fill="#1C2157" transform="translate(406,645)"/>
<path d="M0 0 C5.61 0 11.22 0 17 0 C17 1.32 17 2.64 17 4 C11.72 4 6.44 4 1 4 C0.67 4.99 0.34 5.98 0 7 C0 4.69 0 2.38 0 0 Z " fill="#040838" transform="translate(288,636)"/>
<path d="M0 0 C2 1 2 1 3.1875 3.5 C4.21126193 7.91005138 3.72732066 11.57710406 3 16 C-2.66935484 10.62903226 -2.66935484 10.62903226 -4 7 C-4 6.01 -4 5.02 -4 4 C-3.01 4 -2.02 4 -1 4 C-0.67 2.68 -0.34 1.36 0 0 Z " fill="#06092B" transform="translate(471,483)"/>
<path d="M0 0 C2 2 2 2 2.125 4.625 C2.08375 5.40875 2.0425 6.1925 2 7 C2.66 7.33 3.32 7.66 4 8 C3.360625 8.5775 2.72125 9.155 2.0625 9.75 C0.01776132 11.98062401 -0.58205199 13.07436391 -1 16 C-1.99 15.67 -2.98 15.34 -4 15 C-5.56659619 9.21564482 -5.56659619 9.21564482 -3.953125 5.75390625 C-2.69951916 3.77842065 -1.40435951 1.87085956 0 0 Z " fill="#0A1035" transform="translate(473,453)"/>
<path d="M0 0 C0.3690205 9.41002278 0.3690205 9.41002278 -2 14 C-3.32 14 -4.64 14 -6 14 C-6.10815225 12.23050905 -6.18566083 10.45912513 -6.25 8.6875 C-6.29640625 7.70136719 -6.3428125 6.71523438 -6.390625 5.69921875 C-6 3 -6 3 -4.109375 1.14453125 C-2 0 -2 0 0 0 Z " fill="#063661" transform="translate(561,397)"/>
<path d="M0 0 C1.32 0.33 2.64 0.66 4 1 C3.01 1 2.02 1 1 1 C1.01160156 2.07121094 1.02320313 3.14242187 1.03515625 4.24609375 C1.04453299 5.64322743 1.05363331 7.04036299 1.0625 8.4375 C1.07087891 9.14455078 1.07925781 9.85160156 1.08789062 10.58007812 C1.09653588 12.38693559 1.05220011 14.19387603 1 16 C0.67 16.33 0.34 16.66 0 17 C-0.23701239 19.85877909 -0.42219182 22.69883297 -0.5625 25.5625 C-0.60568359 26.36880859 -0.64886719 27.17511719 -0.69335938 28.00585938 C-0.79975262 30.00368805 -0.90040888 32.0018207 -1 34 C-1.33 34 -1.66 34 -2 34 C-2.04962653 29.96154588 -2.08582632 25.92321113 -2.10986328 21.88452148 C-2.11988926 20.51209417 -2.13351356 19.13968805 -2.15087891 17.76733398 C-2.17527627 15.78899473 -2.18544484 13.81049633 -2.1953125 11.83203125 C-2.20578613 10.64327393 -2.21625977 9.4545166 -2.22705078 8.22973633 C-2.00370033 5.05263614 -1.36116639 2.85656545 0 0 Z " fill="#0F1235" transform="translate(309,647)"/>
<path d="M0 0 C1.32 0.66 2.64 1.32 4 2 C4.02694851 3.95825873 4.04637218 5.91662226 4.0625 7.875 C4.07410156 8.96554687 4.08570313 10.05609375 4.09765625 11.1796875 C4 14 4 14 3 16 C2.34 16 1.68 16 1 16 C-1.25929298 11.48141403 -1.23967948 7.95337583 -1 3 C-0.67 2.01 -0.34 1.02 0 0 Z " fill="#376AA7" transform="translate(489,645)"/>
<path d="M0 0 C0.33 0 0.66 0 1 0 C1 3.3 1 6.6 1 10 C-3.29 10 -7.58 10 -12 10 C-11.34 8.68 -10.68 7.36 -10 6 C-7.32209537 5.16113831 -4.8262059 5.18233586 -2 5 C-1.34 3.35 -0.68 1.7 0 0 Z " fill="#1C246D" transform="translate(339,635)"/>
<path d="M0 0 C2.64 0.66 5.28 1.32 8 2 C8 2.33 8 2.66 8 3 C5.36 3.33 2.72 3.66 0 4 C0 8.29 0 12.58 0 17 C-0.99 16.01 -1.98 15.02 -3 14 C-3 13.34 -3 12.68 -3 12 C-3.66 12 -4.32 12 -5 12 C-4.35550393 8.98782888 -3.34977818 6.48344164 -1.9375 3.75 C-1.57527344 3.04359375 -1.21304687 2.3371875 -0.83984375 1.609375 C-0.56269531 1.07828125 -0.28554688 0.5471875 0 0 Z " fill="#091254" transform="translate(388,347)"/>
<path d="M0 0 C-1.05098766 2.86632997 -1.66862954 3.83006643 -4.4375 5.25 C-7 6 -7 6 -10 6 C-10.33 4.02 -10.66 2.04 -11 0 C-7.18243176 -1.37432457 -3.92744671 -0.67975039 0 0 Z " fill="#0A0D39" transform="translate(406,651)"/>
<path d="M0 0 C-3.37274582 3.37274582 -8.10646412 3.37040603 -12.6875 4.1875 C-14.15993164 4.47270508 -14.15993164 4.47270508 -15.66210938 4.76367188 C-21.11511431 5.75479484 -25.57087185 6.19213024 -31 5 C-31 4.67 -31 4.34 -31 4 C-26.959592 3.32555232 -22.91749334 2.66182413 -18.875 2 C-17.16183594 1.71382813 -17.16183594 1.71382813 -15.4140625 1.421875 C-14.30546875 1.24140625 -13.196875 1.0609375 -12.0546875 0.875 C-11.03874512 0.70742188 -10.02280273 0.53984375 -8.97607422 0.3671875 C-5.9524414 -0.00586777 -3.04327403 -0.0634842 0 0 Z " fill="#88CCDF" transform="translate(662,361)"/>
<path d="M0 0 C1.18851562 0.10183594 2.37703125 0.20367187 3.6015625 0.30859375 C4.51679688 0.39238281 5.43203125 0.47617187 6.375 0.5625 C5.375 3.5625 5.375 3.5625 3.375 4.5625 C1.83476004 4.63200541 0.29165012 4.64702357 -1.25 4.625 C-2.47589844 4.61146484 -2.47589844 4.61146484 -3.7265625 4.59765625 C-4.66628906 4.58025391 -4.66628906 4.58025391 -5.625 4.5625 C-5.625 3.9025 -5.625 3.2425 -5.625 2.5625 C-6.615 1.9025 -7.605 1.2425 -8.625 0.5625 C-5.68113377 -0.90943312 -3.25109964 -0.28686173 0 0 Z " fill="#0D175C" transform="translate(445.625,380.4375)"/>
<path d="M0 0 C1.5 1.375 1.5 1.375 3 3 C3 3.66 3 4.32 3 5 C3.66 5 4.32 5 5 5 C8 8.46153846 8 8.46153846 8 11 C13.445 10.505 13.445 10.505 19 10 C19 10.66 19 11.32 19 12 C6.51473985 13.21642589 6.51473985 13.21642589 2.95703125 10.359375 C0.61601061 6.65218689 0 4.45608595 0 0 Z " fill="#272C4C" transform="translate(458,687)"/>
<path d="M0 0 C0.66 0 1.32 0 2 0 C2 2.97 2 5.94 2 9 C1.67 9 1.34 9 1 9 C0.67 16.92 0.34 24.84 0 33 C-0.33 33 -0.66 33 -1 33 C-1.02473064 28.78247482 -1.04287453 24.56498814 -1.05493164 20.34741211 C-1.05995842 18.91283432 -1.06678079 17.47826164 -1.07543945 16.04370117 C-1.08757752 13.98094418 -1.09324486 11.91825496 -1.09765625 9.85546875 C-1.10289307 8.61434326 -1.10812988 7.37321777 -1.11352539 6.09448242 C-1 3 -1 3 0 0 Z " fill="#040A31" transform="translate(424,647)"/>
<path d="M0 0 C0.99 0 1.98 0 3 0 C2.42647107 3.87132028 0.51295648 6.08172796 -2 9 C-3.875 8.75 -3.875 8.75 -6 8 C-7.25 5.9375 -7.25 5.9375 -8 4 C-7.01 4 -6.02 4 -5 4 C-1.83927895 2.74055347 -1.83927895 2.74055347 0 0 Z " fill="#060827" transform="translate(365,685)"/>
<path d="M0 0 C0.33 0.66 0.66 1.32 1 2 C3.02463255 2.65213292 3.02463255 2.65213292 5 3 C1.52720596 4.15759801 -0.98038824 4.02260483 -4.63671875 3.87890625 C-5.93544922 3.83056641 -7.23417969 3.78222656 -8.57226562 3.73242188 C-9.94401533 3.67590048 -11.31576007 3.61925831 -12.6875 3.5625 C-14.07094416 3.50925949 -15.45440766 3.45651922 -16.83789062 3.40429688 C-20.22548325 3.27445883 -23.61279314 3.13948625 -27 3 C-27 2.67 -27 2.34 -27 2 C-25.87972412 1.96241577 -25.87972412 1.96241577 -24.73681641 1.92407227 C-21.36602733 1.80831787 -17.99553217 1.68549872 -14.625 1.5625 C-13.449375 1.52318359 -12.27375 1.48386719 -11.0625 1.44335938 C-9.94101562 1.40146484 -8.81953125 1.35957031 -7.6640625 1.31640625 C-6.62717285 1.27974854 -5.5902832 1.24309082 -4.52197266 1.20532227 C-2.00574834 1.15835777 -2.00574834 1.15835777 0 0 Z " fill="#161D53" transform="translate(462,664)"/>
<path d="M0 0 C-3.33982257 2.22654838 -5.37468782 2.52201598 -9.3125 3.0625 C-10.42238281 3.21847656 -11.53226563 3.37445313 -12.67578125 3.53515625 C-14.32126953 3.76525391 -14.32126953 3.76525391 -16 4 C-18.0010408 4.32702724 -20.00140659 4.65833426 -22 5 C-22.66 4.01 -23.32 3.02 -24 2 C-15.95072024 0.70098079 -8.16240568 -0.33853295 0 0 Z " fill="#6394BA" transform="translate(603,363)"/>
<path d="M0 0 C1.15941038 3.47823115 0.70820884 5.45895578 0 9 C-0.33 7.68 -0.66 6.36 -1 5 C-5.65987191 8.0657052 -6.85485202 10.58657319 -8 16 C-9.32 15.34 -10.64 14.68 -12 14 C-8.72905967 8.54843278 -4.58146674 4.38130557 0 0 Z " fill="#14193B" transform="translate(488,436)"/>
<path d="M0 0 C0.66 0 1.32 0 2 0 C2 0.66 2 1.32 2 2 C2.66 2 3.32 2 4 2 C4 1.34 4 0.68 4 0 C4.66 0 5.32 0 6 0 C5.46719784 4.22489602 4.12321801 6.54080716 1.4375 9.8125 C0.79683594 10.60269531 0.15617187 11.39289063 -0.50390625 12.20703125 C-0.99761719 12.79871094 -1.49132812 13.39039063 -2 14 C-2 11 -2 11 -0.9375 8.625 C0.14611185 5.59088681 -0.23350933 4.06596267 -1 1 C-0.67 0.67 -0.34 0.34 0 0 Z " fill="#206BAE" transform="translate(464,441)"/>
<path d="M0 0 C4.95 0 9.9 0 15 0 C11.51009191 3.48990809 10.55326487 3.43262017 5.8125 3.6875 C4.72582031 3.75324219 3.63914062 3.81898438 2.51953125 3.88671875 C1.27236328 3.94279297 1.27236328 3.94279297 0 4 C0 2.66666667 0 1.33333333 0 0 Z " fill="#0D134E" transform="translate(411,387)"/>
<path d="M0 0 C0.66 0.66 1.32 1.32 2 2 C1.67 2.66 1.34 3.32 1 4 C4.3 4 7.6 4 11 4 C11 4.99 11 5.98 11 7 C7.04 7 3.08 7 -1 7 C-1 1 -1 1 0 0 Z " fill="#1767A7" transform="translate(702,691)"/>
<path d="M0 0 C-0.66 1.65 -1.32 3.3 -2 5 C-8.0546875 5.9765625 -8.0546875 5.9765625 -10 6 C-10.66 5.34 -11.32 4.68 -12 4 C-7.81413519 0.81076967 -5.29441695 -0.50423019 0 0 Z " fill="#194080" transform="translate(539,375)"/>
<path d="M0 0 C-0.99 0 -1.98 0 -3 0 C-3 0.66 -3 1.32 -3 2 C-5.97 2 -8.94 2 -12 2 C-12 2.66 -12 3.32 -12 4 C-13.32 4 -14.64 4 -16 4 C-16 4.66 -16 5.32 -16 6 C-15.34 6.66 -14.68 7.32 -14 8 C-15.65 8.33 -17.3 8.66 -19 9 C-18.67 7.68 -18.34 6.36 -18 5 C-18.99 4.34 -19.98 3.68 -21 3 C-18.25244513 2.30111323 -15.50268803 1.6156012 -12.75 0.9375 C-11.97269531 0.73833984 -11.19539062 0.53917969 -10.39453125 0.33398438 C-9.64042969 0.15029297 -8.88632812 -0.03339844 -8.109375 -0.22265625 C-7.07248535 -0.48187866 -7.07248535 -0.48187866 -6.01464844 -0.74633789 C-3.74929191 -1.03156637 -2.1631688 -0.68076195 0 0 Z " fill="#44689A" transform="translate(556,371)"/>
<path d="M0 0 C-2.5308463 2.5308463 -4.48137707 2.82870582 -7.9375 3.6875 C-8.99839844 3.95949219 -10.05929687 4.23148437 -11.15234375 4.51171875 C-14 5 -14 5 -17 4 C-16.34 4 -15.68 4 -15 4 C-15 3.34 -15 2.68 -15 2 C-16.32 1.67 -17.64 1.34 -19 1 C-12.62641289 0.03794912 -6.44070471 -0.10655578 0 0 Z " fill="#6DC2D7" transform="translate(635,366)"/>
<path d="M0 0 C-3.89010989 3.89010989 -3.89010989 3.89010989 -6.97265625 4.1953125 C-7.66230469 4.17210937 -8.35195313 4.14890625 -9.0625 4.125 C-12.67396401 4.01035035 -14.08856357 4.05904238 -17 6 C-16.67 4.68 -16.34 3.36 -16 2 C-13.71022755 1.47090114 -11.41810812 0.95194981 -9.125 0.4375 C-7.84882812 0.14746094 -6.57265625 -0.14257812 -5.2578125 -0.44140625 C-2 -1 -2 -1 0 0 Z " fill="#58BCD0" transform="translate(585,374)"/>
<path d="M0 0 C-2.90600261 1.25664978 -4.79604584 2 -8 2 C-8 2.66 -8 3.32 -8 4 C-12.8333472 4.08333357 -17.23692563 3.95261487 -22 3 C-22 2.67 -22 2.34 -22 2 C-19.08483516 1.46915208 -16.16839443 0.95000945 -13.25 0.4375 C-12.425 0.28603516 -11.6 0.13457031 -10.75 -0.02148438 C-9.95078125 -0.16005859 -9.1515625 -0.29863281 -8.328125 -0.44140625 C-7.5949707 -0.57232666 -6.86181641 -0.70324707 -6.10644531 -0.83813477 C-3.83766713 -1.01247412 -2.16221421 -0.66874807 0 0 Z " fill="#3A4089" transform="translate(448,337)"/>
<path d="M0 0 C1.32 0.66 2.64 1.32 4 2 C4 2.99 4 3.98 4 5 C3.195625 5.226875 2.39125 5.45375 1.5625 5.6875 C0.716875 6.120625 -0.12875 6.55375 -1 7 C-1.89386164 9.54775306 -1.89386164 9.54775306 -2 12 C-3.32 11.34 -4.64 10.68 -6 10 C-5.65066406 9.52949219 -5.30132812 9.05898438 -4.94140625 8.57421875 C-4.48636719 7.95160156 -4.03132813 7.32898438 -3.5625 6.6875 C-2.88380859 5.76517578 -2.88380859 5.76517578 -2.19140625 4.82421875 C-0.82663692 2.90322899 -0.82663692 2.90322899 0 0 Z " fill="#12163A" transform="translate(393,676)"/>
<path d="M0 0 C0.66 0 1.32 0 2 0 C1.67 1.32 1.34 2.64 1 4 C1.66 4.33 2.32 4.66 3 5 C0.2153772 5 -2.54264188 4.90419262 -5.32421875 4.78125 C-6.35224609 4.73613281 -7.38027344 4.69101562 -8.43945312 4.64453125 C-10.04723633 4.57298828 -10.04723633 4.57298828 -11.6875 4.5 C-12.77095703 4.45230469 -13.85441406 4.40460937 -14.97070312 4.35546875 C-17.64716175 4.23756308 -20.32359207 4.11904997 -23 4 C-23 3.67 -23 3.34 -23 3 C-22.37432129 2.98018066 -21.74864258 2.96036133 -21.10400391 2.93994141 C-18.27723481 2.84485774 -15.45122185 2.73511254 -12.625 2.625 C-11.64015625 2.5940625 -10.6553125 2.563125 -9.640625 2.53125 C-8.69960938 2.49257813 -7.75859375 2.45390625 -6.7890625 2.4140625 C-5.48509521 2.36693115 -5.48509521 2.36693115 -4.15478516 2.31884766 C-1.79038206 2.18770567 -1.79038206 2.18770567 0 0 Z " fill="#3D4591" transform="translate(458,641)"/>
<path d="M0 0 C-0.33 1.65 -0.66 3.3 -1 5 C-5.62 5 -10.24 5 -15 5 C-15 4.34 -15 3.68 -15 3 C-12.36 3 -9.72 3 -7 3 C-7 2.34 -7 1.68 -7 1 C-4.53721199 -0.231394 -2.7204945 -0.07159196 0 0 Z " fill="#316EAD" transform="translate(519,640)"/>
<path d="M0 0 C1.65 0 3.3 0 5 0 C5 1.65 5 3.3 5 5 C5.99 5.33 6.98 5.66 8 6 C7.67 6.99 7.34 7.98 7 9 C6.67 8.34 6.34 7.68 6 7 C2.97065509 6.34227572 2.97065509 6.34227572 0 6 C0 4.02 0 2.04 0 0 Z " fill="#141C68" transform="translate(426,639)"/>
<path d="M0 0 C1.32 0.33 2.64 0.66 4 1 C3.34 1.66 2.68 2.32 2 3 C1.61533818 6.11663497 1.49291013 9.21156449 1.34375 12.34765625 C1.2303125 13.22292969 1.116875 14.09820312 1 15 C0.01 15.495 0.01 15.495 -1 16 C-2.125 12.25 -2.125 12.25 -1 10 C-1 8.68 -1 7.36 -1 6 C-1 2 -1 2 0 0 Z " fill="#369AC6" transform="translate(531,321)"/>
<path d="M0 0 C1.98 0.495 1.98 0.495 4 1 C4.33 2.65 4.66 4.3 5 6 C4.34 6 3.68 6 3 6 C2.67 6.99 2.34 7.98 2 9 C1.01 8.67 0.02 8.34 -1 8 C-0.67 5.36 -0.34 2.72 0 0 Z " fill="#0C113F" transform="translate(358,672)"/>
<path d="M0 0 C0.66 0 1.32 0 2 0 C2.33 1.98 2.66 3.96 3 6 C1.1875 7.5625 1.1875 7.5625 -1 9 C-1.99 8.67 -2.98 8.34 -4 8 C-3.67 6.68 -3.34 5.36 -3 4 C-2.01 4 -1.02 4 0 4 C0 2.68 0 1.36 0 0 Z " fill="#17599C" transform="translate(492,681)"/>
<path d="M0 0 C1.51953125 1.01953125 1.51953125 1.01953125 3 3 C3.05546517 5.67108574 2.96547069 8.05292823 2.6875 10.6875 C2.62626953 11.38939453 2.56503906 12.09128906 2.50195312 12.81445312 C2.34897376 14.5442967 2.17637398 16.27238497 2 18 C1.01 17.67 0.02 17.34 -1 17 C-0.835 15.96875 -0.67 14.9375 -0.5 13.875 C0.09646118 9.25242588 0.48240178 5.44720533 -1 1 C-0.67 0.67 -0.34 0.34 0 0 Z " fill="#185399" transform="translate(492,644)"/>
<path d="M0 0 C2.475 0.495 2.475 0.495 5 1 C4.01 1.33 3.02 1.66 2 2 C2.33 5.3 2.66 8.6 3 12 C2.34 12 1.68 12 1 12 C0.67 12.99 0.34 13.98 0 15 C0 10.05 0 5.1 0 0 Z " fill="#070C4A" transform="translate(423,635)"/>
<path d="M0 0 C3.63 0.33 7.26 0.66 11 1 C6.91748364 4.06188727 6.43502071 4.37243503 1.75 4.1875 C0.85796875 4.16042969 -0.0340625 4.13335937 -0.953125 4.10546875 C-1.96632813 4.05326172 -1.96632813 4.05326172 -3 4 C-3 3.34 -3 2.68 -3 2 C-2.01 2 -1.02 2 0 2 C0 1.34 0 0.68 0 0 Z " fill="#030832" transform="translate(376,393)"/>
<path d="M0 0 C-0.99 0 -1.98 0 -3 0 C-3 0.66 -3 1.32 -3 2 C-2.34 2.33 -1.68 2.66 -1 3 C-3.64 3.66 -6.28 4.32 -9 5 C-8.67 4.34 -8.34 3.68 -8 3 C-9.65 2.67 -11.3 2.34 -13 2 C-8.62836676 -0.42868513 -4.86219789 -1.62073263 0 0 Z " fill="#527BA7" transform="translate(570,368)"/>
<path d="M0 0 C0 1.98 0 3.96 0 6 C-1.65 6.66 -3.3 7.32 -5 8 C-5.75 6.25 -5.75 6.25 -6 4 C-2.77777778 0 -2.77777778 0 0 0 Z " fill="#030521" transform="translate(487,441)"/>
<path d="M0 0 C-1.98 0.99 -1.98 0.99 -4 2 C-1.74691447 3.21693046 -1.74691447 3.21693046 2 4 C-0.64 4.66 -3.28 5.32 -6 6 C-6 5.01 -6 4.02 -6 3 C-7.32 2.34 -8.64 1.68 -10 1 C-3.71428571 -1.42857143 -3.71428571 -1.42857143 0 0 Z " fill="#335792" transform="translate(532,377)"/>
<path d="M0 0 C0.66 0.33 1.32 0.66 2 1 C1.38909774 7.47556391 1.38909774 7.47556391 -0.4375 9.9375 C-2 11 -2 11 -4 11 C-3.21681311 7.08406554 -1.60820142 3.63593365 0 0 Z " fill="#1F60A0" transform="translate(533,682)"/>
<path d="M0 0 C0.99 0.33 1.98 0.66 3 1 C1.38405168 3.04119788 -0.2856382 5.04072937 -2 7 C-2.66 7 -3.32 7 -4 7 C-4 7.66 -4 8.32 -4 9 C-4.99 9.33 -5.98 9.66 -7 10 C-6.42424336 6.64749299 -5.40693737 5.06181371 -2.9375 2.75 C-2.38964844 2.22921875 -1.84179688 1.7084375 -1.27734375 1.171875 C-0.64505859 0.59179688 -0.64505859 0.59179688 0 0 Z " fill="#2277B3" transform="translate(456,428)"/>
<path d="M0 0 C3.63 0 7.26 0 11 0 C11 0.66 11 1.32 11 2 C7.37 2.33 3.74 2.66 0 3 C0 2.01 0 1.02 0 0 Z " fill="#050837" transform="translate(319,637)"/>
<path d="M0 0 C0.33 0.99 0.66 1.98 1 3 C1.99 2.67 2.98 2.34 4 2 C3.67 5.3 3.34 8.6 3 12 C2.34 12 1.68 12 1 12 C0.67 8.04 0.34 4.08 0 0 Z " fill="#090E3D" transform="translate(357,649)"/>
<path d="M0 0 C1.65 1.65 3.3 3.3 5 5 C3.71034824 6.37562854 2.37310707 7.70766393 1 9 C0.34 9 -0.32 9 -1 9 C-0.67 6.03 -0.34 3.06 0 0 Z " fill="#333774" transform="translate(450,397)"/>
<path d="M0 0 C0 1.98 0 3.96 0 6 C-0.33 4.68 -0.66 3.36 -1 2 C-3.97 4.475 -3.97 4.475 -7 7 C-7.66 6.34 -8.32 5.68 -9 5 C-4.32258065 0 -4.32258065 0 0 0 Z " fill="#133D65" transform="translate(562,395)"/>
<path d="M0 0 C0.66 0.33 1.32 0.66 2 1 C1.34 4.63 0.68 8.26 0 12 C-0.99 11.01 -1.98 10.02 -3 9 C-2.75921963 5.14751405 -2.15973378 3.23960066 0 0 Z " fill="#222D78" transform="translate(506,353)"/>
<path d="M0 0 C3.96 0.33 7.92 0.66 12 1 C12 1.66 12 2.32 12 3 C10.37509046 3.02698189 8.75005367 3.04638757 7.125 3.0625 C5.76761719 3.07990234 5.76761719 3.07990234 4.3828125 3.09765625 C2 3 2 3 0 2 C0 1.34 0 0.68 0 0 Z " fill="#060821" transform="translate(369,696)"/>
<path d="M0 0 C0.99 0.33 1.98 0.66 3 1 C4.1875 4.5625 4.1875 4.5625 5 8 C0.22753346 5.55258126 0.22753346 5.55258126 -0.875 2.875 C-0.91625 2.25625 -0.9575 1.6375 -1 1 C-0.67 0.67 -0.34 0.34 0 0 Z " fill="#245799" transform="translate(454,485)"/>
<path d="M0 0 C0.33 0 0.66 0 1 0 C1.66 5.28 2.32 10.56 3 16 C2.34 16 1.68 16 1 16 C-2 12.53846154 -2 12.53846154 -2 10 C-1.34 10 -0.68 10 0 10 C0 6.7 0 3.4 0 0 Z " fill="#434D7A" transform="translate(431,454)"/>
<path d="M0 0 C0.66 0 1.32 0 2 0 C1.67 2.97 1.34 5.94 1 9 C0.34 9 -0.32 9 -1 9 C-1.625 5.625 -1.625 5.625 -2 2 C-1.34 1.34 -0.68 0.68 0 0 Z " fill="#080B28" transform="translate(470,459)"/>
<path d="M0 0 C-2.82553984 4.23830976 -5.12180888 3.97715348 -10 5 C-10 3 -10 3 -8.9375 1.375 C-6.03661182 -0.68369484 -3.45519943 -0.19557733 0 0 Z " fill="#204F8E" transform="translate(563,370)"/>
<path d="M0 0 C0.66 0.33 1.32 0.66 2 1 C2.1953125 7.0546875 2.1953125 7.0546875 2 9 C1.34 9.66 0.68 10.32 0 11 C-1.89885096 9.10114904 -1.12367506 6.42752097 -1.1328125 3.91015625 C-1 2 -1 2 0 0 Z " fill="#2C91BC" transform="translate(523,357)"/>
<path d="M0 0 C0.33 0 0.66 0 1 0 C1 3.3 1 6.6 1 10 C0.34 9.67 -0.32 9.34 -1 9 C-1 8.34 -1 7.68 -1 7 C-1.66 7 -2.32 7 -3 7 C-2.38722388 4.03824877 -1.74627478 2.61941217 0 0 Z " fill="#040E4C" transform="translate(386,352)"/>
<path d="M0 0 C1.32 0 2.64 0 4 0 C3.46930939 3.82097239 2.50298434 6.06171403 0 9 C-1.10844919 5.67465243 -0.84454356 3.37817425 0 0 Z " fill="#1A1F3E" transform="translate(401,679)"/>
<path d="M0 0 C0.66 0 1.32 0 2 0 C1.67 0.99 1.34 1.98 1 3 C1.99 3 2.98 3 4 3 C3.67 3.99 3.34 4.98 3 6 C0.61435923 5.42415568 -1.66682784 4.77772405 -4 4 C-4.33 3.01 -4.66 2.02 -5 1 C-3.68 1 -2.36 1 -1 1 C-0.67 0.67 -0.34 0.34 0 0 Z " fill="#091257" transform="translate(467,662)"/>
<path d="M0 0 C0.33 0 0.66 0 1 0 C1.3690205 9.41002278 1.3690205 9.41002278 -1 14 C-1.33 14 -1.66 14 -2 14 C-1.85795259 12.41632253 -1.71119847 10.83306682 -1.5625 9.25 C-1.48128906 8.36828125 -1.40007812 7.4865625 -1.31640625 6.578125 C-1.03761535 4.30649548 -0.61209423 2.20148177 0 0 Z " fill="#3D71AF" transform="translate(488,510)"/>
<path d="M0 0 C2.0625 1.3125 2.0625 1.3125 4 4 C4.05898893 7.72702755 3.58315738 11.32357303 3 15 C2.34 15 1.68 15 1 15 C1.01740234 14.00419922 1.01740234 14.00419922 1.03515625 12.98828125 C1.11893409 6.43693213 1.11893409 6.43693213 0 0 Z " fill="#151944" transform="translate(473,485)"/>
<path d="M0 0 C0 1.65 0 3.3 0 5 C-1.32 5 -2.64 5 -4 5 C-4.33 5.99 -4.66 6.98 -5 8 C-5.33 6.35 -5.66 4.7 -6 3 C-2.25 0 -2.25 0 0 0 Z " fill="#012850" transform="translate(561,397)"/>
<path d="M0 0 C-0.99 0.495 -0.99 0.495 -2 1 C-2 1.66 -2 2.32 -2 3 C-4.64 2.67 -7.28 2.34 -10 2 C-10 1.34 -10 0.68 -10 0 C-5.91847062 -2.09907226 -4.08152938 -2.09907226 0 0 Z " fill="#101550" transform="translate(318,646)"/>
<path d="M0 0 C3.96 0 7.92 0 12 0 C11.67 0.66 11.34 1.32 11 2 C7.6875 2.8125 7.6875 2.8125 4 3 C2.68 2.01 1.36 1.02 0 0 Z " fill="#040C58" transform="translate(443,635)"/>
<path d="M0 0 C0.66 0 1.32 0 2 0 C3.25 7.625 3.25 7.625 1 11 C0 10 0 10 -0.09765625 7.71484375 C-0.08605469 6.79832031 -0.07445312 5.88179688 -0.0625 4.9375 C-0.05347656 4.01839844 -0.04445313 3.09929687 -0.03515625 2.15234375 C-0.02355469 1.44207031 -0.01195312 0.73179687 0 0 Z " fill="#1E2751" transform="translate(464,472)"/>
<path d="M0 0 C0 2.64 0 5.28 0 8 C-0.99 8 -1.98 8 -3 8 C-3.33 6.02 -3.66 4.04 -4 2 C-1 0 -1 0 0 0 Z " fill="#0C124C" transform="translate(431,456)"/>
<path d="M0 0 C0.66 0.99 1.32 1.98 2 3 C1.67 3.99 1.34 4.98 1 6 C0.96125079 7.66621616 0.9549714 9.33394172 1 11 C0.01 11.33 -0.98 11.66 -2 12 C-1.85831863 10.56208484 -1.71148957 9.1246763 -1.5625 7.6875 C-1.48128906 6.88699219 -1.40007813 6.08648437 -1.31640625 5.26171875 C-1 3 -1 3 0 0 Z " fill="#4DA7CF" transform="translate(529,329)"/>
<path d="M0 0 C-1 2 -1 2 -2.99609375 2.703125 C-3.80175781 2.88359375 -4.60742188 3.0640625 -5.4375 3.25 C-6.24058594 3.44078125 -7.04367187 3.6315625 -7.87109375 3.828125 C-8.92490234 3.91320312 -8.92490234 3.91320312 -10 4 C-10.66 3.34 -11.32 2.68 -12 2 C-7.8794254 0.00214565 -4.54805635 -0.17835515 0 0 Z " fill="#62C3D3" transform="translate(652,301)"/>
<path d="M0 0 C1 2 1 2 0.75 4 C0 6 0 6 -3 8 C-3.99 7.67 -4.98 7.34 -6 7 C-4.02 4.69 -2.04 2.38 0 0 Z " fill="#1E62A4" transform="translate(602,685)"/>
<path d="M0 0 C-0.57344937 2.86724686 -0.8614515 3.8614515 -3 6 C-3.99 6 -4.98 6 -6 6 C-6 3 -6 3 -4.6875 1.3125 C-3 0 -3 0 0 0 Z " fill="#00041D" transform="translate(368,685)"/>
<path d="M0 0 C2.97 0.495 2.97 0.495 6 1 C3.83312509 3.27521866 1.54379491 5.15794162 -1 7 C-0.67 4.69 -0.34 2.38 0 0 Z " fill="#1C235F" transform="translate(463,670)"/>
<path d="M0 0 C0 0.33 0 0.66 0 1 C-2.64 1 -5.28 1 -8 1 C-8 1.66 -8 2.32 -8 3 C-10.64 2.67 -13.28 2.34 -16 2 C-16 1.67 -16 1.34 -16 1 C-10.63904667 -0.12862175 -5.44693314 -0.09688221 0 0 Z " fill="#1F2678" transform="translate(432,340)"/>
<path d="M0 0 C1.65 0 3.3 0 5 0 C4.67 1.32 4.34 2.64 4 4 C2.35 4.33 0.7 4.66 -1 5 C-0.67 3.35 -0.34 1.7 0 0 Z " fill="#1D5299" transform="translate(525,541)"/>
<path d="M0 0 C0.99 0.33 1.98 0.66 3 1 C3 2.98 3 4.96 3 7 C2.01 7 1.02 7 0 7 C0 4.69 0 2.38 0 0 Z " fill="#1959A2" transform="translate(532,521)"/>
<path d="M0 0 C0.99 0.33 1.98 0.66 3 1 C0.525 5.455 0.525 5.455 -2 10 C-2.33 10 -2.66 10 -3 10 C-3 8.02 -3 6.04 -3 4 C-2.34 3.67 -1.68 3.34 -1 3 C-0.67 2.01 -0.34 1.02 0 0 Z " fill="#202769" transform="translate(436,437)"/>
<path d="M0 0 C1.65 1.65 3.3 3.3 5 5 C4.01 5.33 3.02 5.66 2 6 C1.67 6.66 1.34 7.32 1 8 C0.26919734 6.02253397 -0.39421747 4.01927511 -1 2 C-0.67 1.34 -0.34 0.68 0 0 Z " fill="#111739" transform="translate(363,679)"/>
<path d="M0 0 C0 1.65 0 3.3 0 5 C-1.98 5.99 -1.98 5.99 -4 7 C-4.1875 4.625 -4.1875 4.625 -4 2 C-1 0 -1 0 0 0 Z " fill="#19307D" transform="translate(515,382)"/>
<path d="M0 0 C0.99 0.33 1.98 0.66 3 1 C0.25 7.875 0.25 7.875 -2 9 C-1.34 6.03 -0.68 3.06 0 0 Z " fill="#1C2665" transform="translate(385,347)"/>
<path d="M0 0 C-0.33 0.99 -0.66 1.98 -1 3 C-4.5625 4.6875 -4.5625 4.6875 -8 6 C-8.33 5.34 -8.66 4.68 -9 4 C-2.25 0 -2.25 0 0 0 Z " fill="#1F5482" transform="translate(517,416)"/>
<path d="M0 0 C0.99 0.33 1.98 0.66 3 1 C2.67 1.66 2.34 2.32 2 3 C1.34 3 0.68 3 0 3 C0 3.99 0 4.98 0 6 C-0.66 6 -1.32 6 -2 6 C-2 4.35 -2 2.7 -2 1 C-1.34 0.67 -0.68 0.34 0 0 Z " fill="#0B145B" transform="translate(473,386)"/>
<path d="M0 0 C2.33944736 0.28730055 4.6739143 0.61936779 7 1 C6.360625 1.103125 5.72125 1.20625 5.0625 1.3125 C4.0415625 1.6528125 4.0415625 1.6528125 3 2 C2.67 2.99 2.34 3.98 2 5 C1.67 4.01 1.34 3.02 1 2 C0.34 1.67 -0.32 1.34 -1 1 C-0.67 0.67 -0.34 0.34 0 0 Z " fill="#0C1760" transform="translate(487,379)"/>
<path d="M0 0 C0.94875 0.04125 1.8975 0.0825 2.875 0.125 C1.48304085 2.9089183 -0.28075779 3.10398997 -3.125 4.125 C-3.785 3.465 -4.445 2.805 -5.125 2.125 C-3.125 0.125 -3.125 0.125 0 0 Z " fill="#11387D" transform="translate(532.125,376.875)"/>
<path d="M0 0 C0.33 0 0.66 0 1 0 C0.67 2.64 0.34 5.28 0 8 C-0.66 8 -1.32 8 -2 8 C-1.125 1.125 -1.125 1.125 0 0 Z " fill="#030D4B" transform="translate(383,360)"/>
<path d="M0 0 C2.64 0.33 5.28 0.66 8 1 C8 1.66 8 2.32 8 3 C6.02 3 4.04 3 2 3 C2 2.34 2 1.68 2 1 C1.34 0.67 0.68 0.34 0 0 Z " fill="#1A2178" transform="translate(438,338)"/>
</svg>
