<svg version="1.2" xmlns="http://www.w3.org/2000/svg" viewBox="0 0 353 328" width="353" height="328">
	<style>
		.s0 { fill: #226aab } 
		.s1 { fill: #141d6c } 
		.s2 { fill: #46aeca } 
		.s3 { fill: #2e8bbb } 
		.s4 { fill: #1e2873 } 
		.s5 { fill: #063d6d } 
		.s6 { fill: #0f1850 } 
		.s7 { fill: #b9babb } 
		.s8 { fill: #bdbdbe } 
		.s9 { fill: #131a59 } 
		.s10 { fill: #0d155b } 
		.s11 { fill: #0e3c67 } 
		.s12 { fill: #063661 } 
		.s13 { fill: #14193b } 
		.s14 { fill: #333774 } 
		.s15 { fill: #133d65 } 
		.s16 { fill: #222d78 } 
		.s17 { fill: #434d7a } 
		.s18 { fill: #3d71af } 
		.s19 { fill: #012850 } 
		.s20 { fill: #1e2751 } 
		.s21 { fill: #0c124c } 
		.s22 { fill: #4da7cf } 
		.s23 { fill: #1f2678 } 
		.s24 { fill: #1d5299 } 
		.s25 { fill: #1959a2 } 
		.s26 { fill: #202769 } 
		.s27 { fill: #19307d } 
		.s28 { fill: #1c2665 } 
		.s29 { fill: #1f5482 } 
		.s30 { fill: #1a2178 } 
	</style>
	<path class="s0" d="m225 118c-0.57 8.75-2.04 17.22-3.75 25.81q-0.4 2.06-0.81 4.11-2.91 14.75-6.36 29.38-1.09 4.65-2.01 9.33-1.6 8.01-3.28 16-0.31 1.49-0.63 3.02-0.98 4.74-1.97 9.48-0.97 4.64-1.94 9.28-0.64 3.1-1.3 6.19-1.69 8.04-3.24 16.12-0.31 1.63-0.64 3.31-0.61 3.11-1.18 6.24c-1.32 6.72-3.06 10.79-8.86 14.84q-1.49 0.93-3.03 1.89-2.7 2-5.35 4.06-3.03 2.31-6.1 4.56c-5.11 3.79-10.18 7.64-15.24 11.51q-1.33 1.01-2.7 2.05-5.91 4.49-11.77 9.06c-0.91 0.71-0.91 0.71-1.83 1.44q-2.36 1.84-4.71 3.7c-2.3 1.62-2.3 1.62-4.3 1.62q0.31-1.24 0.63-2.52c2.46-10.16 4.6-20.37 6.68-30.61 2.92-14.32 6.06-28.58 9.31-42.83 4.1-17.92 8.13-35.86 11.87-53.86q0.75-3.63 1.52-7.25c1.12-5.28 2.11-10.49 2.69-15.85 1.43-12.25 1.43-12.25 6.09-16.81 3.27-2.12 6.76-3.59 10.37-5.06 3.42-1.45 6.74-3.09 10.06-4.74 27.19-13.47 27.19-13.47 31.78-13.47z"/>
	<path class="s1" d="m177 48c-1.13 8.96-2.96 17.68-5.05 26.46-1.11 4.67-2.11 9.3-2.85 14.04q-0.22 1.29-0.44 2.62-0.4 2.44-0.7 4.89c-0.39 2.29-0.81 3.97-1.96 5.99-2.77 1.95-5.81 2.9-9 4q-2.81 1.21-5.6 2.48c-1.47 0.66-1.47 0.66-2.97 1.33-11.33 5.11-22.79 10.29-32.7 17.94-1.73 1.25-1.73 1.25-3.73 1.25q0.43-2.97 0.88-5.94 0.24-1.64 0.49-3.34c0.72-4.28 1.65-8.49 2.63-12.72q-1.54 0.36-3.13 0.73c-9.7 2.24-19.43 4.11-29.25 5.76q-9.35 1.6-18.62 3.63c-7.97 1.74-15.9 2.91-24 3.88q-3.5 0.49-7 1c1.41-9.96 4.18-19.58 6.95-29.24q0.81-2.84 1.58-5.7 1.13-4.15 2.33-8.28 0.34-1.27 0.68-2.58c0.66-2.23 1.31-4.18 2.46-6.2 2.82-1.48 2.82-1.48 6-2q1.43-0.28 2.91-0.57 1.52-0.24 3.09-0.47c1.76-0.28 1.76-0.28 3.57-0.56q1.9-0.29 3.87-0.59c12.62-1.96 25.18-4.15 37.75-6.44 22.06-4.02 22.06-4.02 33.07-5.48 4.4-0.61 8.48-1.67 12.74-2.89 3.15-0.63 6.32-1.13 9.5-1.63q1.22-0.2 2.47-0.4c4.74-0.75 9.23-1.11 14.03-0.97z"/>
	<path class="s2" d="m322 23c-0.62 5.73-1.64 11.21-3 16.81q-0.29 1.22-0.58 2.47-0.93 3.86-1.86 7.72-0.62 2.59-1.23 5.18-2.6 10.93-5.33 21.82-1.48 0.06-3.01 0.12c-28.71 1.18-56.88 3.57-84.99 9.88q-1.58 0.35-3.21 0.71-5.21 1.17-10.42 2.35c-1.61 0.37-1.61 0.37-3.27 0.75-5.76 1.33-11.42 2.82-17.05 4.64-2.05 0.55-2.05 0.55-5.05 0.55 0.68-9.05 2.88-17.75 4.94-26.56q0.54-2.37 1.09-4.73c1.89-8.19 1.89-8.19 2.51-10.71q0.48-2.09 0.81-4.21c0.39-2.17 0.39-2.17 1.65-5.79 2.55-1.4 2.55-1.4 6-2q1-0.19 2.04-0.39 3.56-0.65 7.14-1.2 1.32-0.21 2.68-0.43 4.29-0.68 8.58-1.35 5.88-0.94 11.76-1.89 1.42-0.23 2.89-0.46 10.38-1.67 20.72-3.53c8.01-1.43 16.04-2.56 24.11-3.6 7.17-0.96 14.23-2.27 21.3-3.79 6.86-1.46 13.74-2.59 20.78-2.36z"/>
	<path class="s3" d="m325 84c-2.81 2.81-5.94 2.91-9.73 3.55q-2.41 0.44-4.82 0.87-3.77 0.67-7.54 1.32c-11.31 1.98-22.02 4.63-32.91 8.26q-3.43 1.06-6.86 2.1-1.6 0.49-3.25 0.99-3.23 0.98-6.46 1.96c-5.99 1.83-11.9 3.79-17.77 5.97q-3.95 1.45-7.91 2.84c-33.01 11.7-63.62 27.5-89.75 51.14q-1.02 0.89-2.06 1.81c-8.75 8.13-16.01 19.4-17.28 31.42-0.21 7.07 0.84 13.17 3.34 19.77-9.1-4.36-15.21-11.71-19-21q-0.62-1.39-1.25-2.81c-2.28-9.71-0.44-17.51 4.25-26.19 11.94-18.82 31.66-31.03 51-41q1.1-0.57 2.23-1.16c24.18-12.47 50.83-20.12 77.33-25.9q1.17-0.26 2.37-0.52c21-4.61 42.13-7.79 63.41-10.76 1.1-0.15 1.1-0.15 2.23-0.31q3.01-0.42 6.03-0.84 3.09-0.46 6.15-1.07c2.78-0.54 5.43-0.51 8.25-0.44z"/>
	<path class="s4" d="m266 86c-3.27 2.18-5.03 2.44-8.88 2.94-6.82 0.98-13.43 2.39-20.12 4.06-1.16 0.29-1.16 0.29-2.35 0.58-42.73 10.55-85.64 24.47-119.65 53.42-1.21 0.97-1.21 0.97-2.44 1.96-5.93 4.92-9.81 10.34-13.56 17.04q-0.95 1.6-1.94 3.25c-2.12 7.48-1.85 16.2-0.06 23.75q-0.98 0-2 0c-5.47-6.88-7.64-14.48-7.34-23.24 1.64-13.23 11.81-23.29 21.34-31.76 4.18-3.25 8.53-6.16 13-9q0.9-0.58 1.82-1.19c33.14-21.43 73.63-32.26 112.18-38.81q1.33-0.23 2.69-0.46 4-0.66 8-1.29 1.18-0.19 2.39-0.39c5.67-0.85 11.19-1 16.92-0.86z"/>
	<path class="s5" d="m225 118q-0.17 2.59-0.38 5.19-0.1 1.43-0.21 2.92c-0.76 5.31-0.76 5.31-2.41 7.89-3.01 1.88-6.24 3.23-9.5 4.63-14.33 6.48-27.35 14.6-40.09 23.79-2.41 1.58-2.41 1.58-4.41 1.58-0.12-3.67-0.09-7.33 0-11q-0.06-1.19-0.12-2.42c0.15-2.78 0.6-4.22 2.12-6.58 4.91-3.79 10.43-6.31 16-9q2.66-1.31 5.32-2.63c29.08-14.37 29.08-14.37 33.68-14.37z"/>
	<path class="s6" d="m151 159c1.16 3.49 0.79 4.95 0.03 8.51q-0.35 1.7-0.72 3.44-0.4 1.84-0.81 3.74-0.4 1.89-0.81 3.83-1.33 6.25-2.69 12.48-0.24 1.1-0.48 2.24-3.23 14.88-6.52 29.76c-5.29-1.76-7.57-7.25-10.05-12.02-3.17-7.39-2.86-15.17-0.06-22.63 5.24-11.11 13.23-20.96 22.11-29.35z"/>
	<path class="s7" d="m58 171c0.72 3.54 0.89 6.48 0 10-3.22 3.38-7.01 5.62-11 8q-2.57 1.67-5.13 3.38-1.08 0.68-2.19 1.39c-1.83 1.14-1.83 1.14-2.68 3.23q0.98 0.32 1.98 0.65c4.11 1.84 7.6 4.34 11.27 6.91 1.1 0.76 1.1 0.76 2.22 1.54 5.35 3.72 5.35 3.72 6.53 4.9q0.1 2.53 0.06 5.06-0.01 1.37-0.02 2.79-0.02 1.06-0.04 2.15c-3.04-1.45-5.85-3.12-8.69-4.94q-1.42-0.91-2.88-1.85-1.72-1.1-3.43-2.21-1.05-0.67-2.12-1.37c-17.85-11.52-17.85-11.52-18.61-14.36 1-4.48 3.1-5.51 6.83-7.96q1.27-0.8 2.59-1.62 2.61-1.7 5.22-3.41 1.29-0.82 2.62-1.67c3.41-2.22 6.72-4.56 10.03-6.92 5.2-3.69 5.2-3.69 7.44-3.69z"/>
	<path class="s8" d="m273 171c3.43 0.64 5.78 1.97 8.69 3.88q1.42 0.92 2.89 1.88c0.8 0.53 0.8 0.53 1.62 1.07q3.07 1.99 6.16 3.94 2.29 1.46 4.58 2.92c1.1 0.69 1.1 0.69 2.22 1.4 7.55 4.84 7.55 4.84 9.84 7.91-0.24 2.62-0.68 3.71-2.64 5.49q-1.04 0.69-2.12 1.39-1.17 0.78-2.38 1.59-1.25 0.81-2.55 1.66-2.59 1.72-5.19 3.45-1.29 0.86-2.61 1.73c-4.21 2.83-8.31 5.81-12.41 8.79-4 2.9-4 2.9-5.1 2.9-0.7-3.86-0.9-7.16 0-11 3.17-3.48 6.94-5.67 11-8 1.45-0.87 1.45-0.87 2.92-1.75q2.57-1.55 5.18-3.02c2.04-1.1 2.04-1.1 2.9-3.23q-0.96-0.32-1.95-0.65c-4.23-1.87-7.95-4.38-11.8-6.91q-1.16-0.76-2.36-1.54c-5.73-3.74-5.73-3.74-6.89-4.9q-0.1-2.28-0.06-4.56 0.01-1.24 0.02-2.51 0.02-0.95 0.04-1.93z"/>
	<path class="s9" d="m110 140q0.49 0.99 1 2c2.02 0.65 2.02 0.65 4 1q0 0.99 0 2-0.99 0-2 0 0 1.97 0 4-2.47 2.08-4.99 4.1c-3.88 3.67-6.38 8.3-9.01 12.9q-0.95 1.6-1.94 3.25c-2.12 7.48-1.85 16.2-0.06 23.75q-0.99 0-2 0c-5.47-6.88-7.64-14.48-7.34-23.24 1.16-9.33 11.67-29.76 22.34-29.76z"/>
	<path class="s10" d="m110 140q0.49 0.99 1 2c2.02 0.65 2.02 0.65 4 1q0 0.99 0 2-0.99 0-2 0 0 1.97 0 4c-1.53 1.48-1.53 1.48-3.5 2.75q-0.97 0.64-1.97 1.3c-0.76 0.47-0.76 0.47-1.53 0.95q-0.49-1.97-1-4-0.99 0-2 0-0.99-1.97-2-4 1.39-1.51 2.81-3 0.78-0.83 1.58-1.69c1.61-1.31 1.61-1.31 4.61-1.31z"/>
	<path class="s11" d="m180 139q-0.49 1.48-1 3c-3.06 1.19-3.06 1.19-6 2q0.03 0.96 0.07 1.94c0.11 5.47-0.27 9.89-2.07 15.06q-0.99 0-2 0-0.49 1.48-1 3c-0.5-14.96-0.5-14.96 2-20 2.84-2.57 6.06-5 10-5z"/>
	<path class="s12" d="m224 120c0.37 9.41 0.37 9.41-2 14q-1.97 0-4 0-0.16-2.65-0.25-5.31-0.07-1.47-0.14-2.99c0.39-2.7 0.39-2.7 2.28-4.56 2.11-1.14 2.11-1.14 4.11-1.14z"/>
	<path class="s13" d="m151 159c1.16 3.48 0.71 5.46 0 9q-0.49-1.97-1-4c-4.66 3.07-5.85 5.59-7 11q-1.97-0.99-4-2c3.27-5.45 7.42-9.62 12-14z"/>
	<path class="s14" d="m113 120c1.65 1.65 3.3 3.3 5 5q-1.94 2.06-4 4-0.99 0-2 0c0.33-2.97 0.66-5.94 1-9z"/>
	<path class="s15" d="m225 118q0 2.95 0 6-0.49-1.97-1-4c-2.97 2.48-2.97 2.48-6 5q-0.99-0.99-2-2c4.68-5 4.68-5 9-5z"/>
	<path class="s16" d="m169 76q0.99 0.49 2 1c-0.66 3.63-1.32 7.26-2 11q-1.48-1.48-3-3c0.24-3.85 0.84-5.76 3-9z"/>
	<path class="s17" d="m94 177q0.49 0 1 0c0.66 5.28 1.32 10.56 2 16q-0.99 0-2 0c-3-3.46-3-3.46-3-6q0.99 0 2 0c0-3.3 0-6.6 0-10z"/>
	<path class="s18" d="m151 233q0.49 0 1 0c0.37 9.41 0.37 9.41-2 14q-0.49 0-1 0 0.21-2.38 0.44-4.75 0.12-1.32 0.24-2.67c0.28-2.27 0.71-4.38 1.32-6.58z"/>
	<path class="s19" d="m224 120q0 2.46 0 5-1.97 0-4 0-0.49 1.48-1 3-0.49-2.46-1-5c3.75-3 3.75-3 6-3z"/>
	<path class="s20" d="m127 195q0.99 0 2 0c1.25 7.63 1.25 7.63-1 11-1-1-1-1-1.1-3.29q0.02-1.36 0.04-2.77 0.01-1.37 0.02-2.79 0.02-1.06 0.04-2.15z"/>
	<path class="s21" d="m94 179c0 2.64 0 5.28 0 8q-1.48 0-3 0-0.49-2.95-1-6c3-2 3-2 4-2z"/>
	<path class="s22" d="m192 52q0.99 1.48 2 3-0.49 1.48-1 3-0.06 2.5 0 5-1.48 0.49-3 1 0.21-2.16 0.44-4.31 0.12-1.2 0.24-2.43c0.32-2.26 0.32-2.26 1.32-5.26z"/>
	<path class="s23" d="m95 63q0 0.49 0 1c-2.64 0-5.28 0-8 0q0 0.99 0 2c-2.64-0.33-5.28-0.66-8-1q0-0.49 0-1c5.36-1.13 10.55-1.1 16-1z"/>
	<path class="s24" d="m188 264q2.46 0 5 0-0.49 1.97-1 4-2.46 0.49-5 1 0.49-2.46 1-5z"/>
	<path class="s25" d="m195 244q1.48 0.49 3 1 0 2.96 0 6-1.48 0-3 0c0-2.31 0-4.62 0-7z"/>
	<path class="s26" d="m99 160q1.48 0.49 3 1c-2.48 4.45-2.48 4.45-5 9q-0.49 0-1 0 0-2.95 0-6 0.99-0.49 2-1 0.49-1.48 1-3z"/>
	<path class="s27" d="m178 105q0 2.46 0 5c-1.98 0.99-1.98 0.99-4 2-0.19-2.38-0.19-2.38 0-5 3-2 3-2 4-2z"/>
	<path class="s28" d="m48 70q1.48 0.49 3 1c-2.75 6.88-2.75 6.88-5 8 0.66-2.97 1.32-5.94 2-9z"/>
	<path class="s29" d="m180 139q-0.49 1.48-1 3c-3.56 1.69-3.56 1.69-7 3q-0.49-0.99-1-2c6.75-4 6.75-4 9-4z"/>
	<path class="s30" d="m101 61c2.64 0.33 5.28 0.66 8 1q0 0.99 0 2-2.95 0-6 0 0-0.99 0-2-0.99-0.49-2-1z"/>
</svg>