<svg version="1.2" xmlns="http://www.w3.org/2000/svg" viewBox="0 0 320 320" width="320" height="320">
	<style>
		.s0 { fill: #226aab } 
		.s1 { fill: #141d6c } 
		.s2 { fill: #46aeca } 
		.s3 { fill: #2e8bbb } 
		.s4 { fill: #1e2873 } 
		.s5 { fill: #0f1850 } 
	</style>
	<g id="Folder 1">
		<path class="s0" d="m207.26 115.12c-0.55 8.54-1.99 16.81-3.65 25.18q-0.39 2.01-0.79 4.02-2.84 14.38-6.2 28.66-1.06 4.53-1.96 9.1-1.56 7.81-3.19 15.61-0.3 1.45-0.61 2.94-0.97 4.62-1.93 9.25-0.94 4.53-1.89 9.06-0.63 3.02-1.26 6.03-1.66 7.85-3.16 15.73-0.31 1.59-0.63 3.23-0.59 3.04-1.14 6.09c-1.29 6.56-2.99 10.52-8.64 14.47q-1.45 0.91-2.95 1.85-2.63 1.95-5.21 3.96-2.96 2.25-5.95 4.45c-4.98 3.69-9.92 7.46-14.85 11.23q-1.3 0.98-2.63 2-5.76 4.39-11.47 8.84c-0.89 0.69-0.89 0.69-1.79 1.4q-2.3 1.8-4.59 3.61c-2.24 1.58-2.24 1.58-4.19 1.58q0.31-1.21 0.62-2.46c2.4-9.9 4.48-19.86 6.51-29.85 2.84-13.98 5.9-27.89 9.07-41.79 3.99-17.49 7.93-34.99 11.56-52.55q0.74-3.54 1.49-7.07c1.09-5.15 2.05-10.23 2.62-15.47 1.4-11.95 1.4-11.95 5.93-16.39 3.19-2.07 6.6-3.51 10.11-4.94 3.33-1.42 6.56-3.01 9.81-4.63 26.49-13.14 26.49-13.14 30.96-13.14z"/>
		<path class="s1" d="m160.49 46.83c-1.11 8.74-2.89 17.25-4.92 25.81-1.08 4.56-2.06 9.08-2.78 13.7q-0.21 1.26-0.43 2.56-0.39 2.38-0.68 4.77c-0.39 2.23-0.79 3.88-1.91 5.84-2.71 1.91-5.67 2.83-8.77 3.9q-2.74 1.19-5.46 2.42c-1.43 0.65-1.43 0.65-2.89 1.3-11.05 4.99-22.22 10.04-31.87 17.5-1.69 1.22-1.69 1.22-3.64 1.22q0.43-2.89 0.86-5.79 0.23-1.6 0.48-3.26c0.71-4.17 1.61-8.28 2.56-12.41q-1.5 0.35-3.05 0.72c-9.45 2.18-18.93 4.01-28.5 5.62q-9.12 1.55-18.15 3.54c-7.76 1.7-15.49 2.83-23.39 3.78q-3.41 0.48-6.82 0.97c1.37-9.72 4.08-19.1 6.77-28.52q0.79-2.78 1.55-5.56 1.1-4.05 2.27-8.08 0.32-1.24 0.66-2.52c0.65-2.17 1.27-4.08 2.4-6.05 2.75-1.44 2.75-1.44 5.84-1.95q1.4-0.27 2.84-0.56 1.48-0.22 3.01-0.46c1.72-0.26 1.72-0.26 3.48-0.54q1.85-0.28 3.77-0.57c12.29-1.92 24.54-4.05 36.79-6.28 21.5-3.93 21.5-3.93 32.22-5.36 4.29-0.58 8.27-1.63 12.42-2.81 3.07-0.62 6.16-1.11 9.26-1.59q1.18-0.19 2.41-0.4c4.62-0.72 8.99-1.08 13.67-0.94z"/>
		<path class="s2" d="m301.79 22.44c-0.61 5.59-1.6 10.94-2.92 16.4q-0.28 1.19-0.57 2.41-0.9 3.76-1.81 7.53-0.6 2.53-1.2 5.05-2.54 10.66-5.19 21.29-1.45 0.06-2.94 0.12c-27.98 1.15-55.43 3.48-82.82 9.64q-1.54 0.34-3.12 0.69-5.08 1.14-10.16 2.3c-1.58 0.35-1.58 0.35-3.18 0.72-5.62 1.31-11.14 2.76-16.63 4.53-1.99 0.54-1.99 0.54-4.92 0.54 0.66-8.83 2.81-17.32 4.82-25.92q0.53-2.3 1.06-4.61c1.84-7.99 1.84-7.99 2.45-10.44q0.46-2.05 0.79-4.12c0.38-2.11 0.38-2.11 1.6-5.64 2.49-1.37 2.49-1.37 5.85-1.95q0.98-0.19 1.99-0.39 3.47-0.63 6.96-1.16 1.29-0.21 2.61-0.42 4.18-0.67 8.36-1.33 5.73-0.91 11.46-1.83 1.38-0.23 2.81-0.45 10.12-1.63 20.2-3.45c7.81-1.4 15.63-2.5 23.49-3.51 6.99-0.93 13.87-2.22 20.76-3.7 6.68-1.43 13.39-2.52 20.25-2.3z"/>
		<path class="s3" d="m304.71 81.95c-2.74 2.75-5.79 2.84-9.47 3.47q-2.35 0.42-4.7 0.84-3.68 0.65-7.36 1.29c-11.02 1.94-21.45 4.52-32.06 8.06q-3.34 1.03-6.69 2.05-1.56 0.47-3.17 0.96-3.14 0.96-6.29 1.92c-5.84 1.78-11.6 3.69-17.32 5.82q-3.84 1.41-7.71 2.77c-32.16 11.42-61.99 26.83-87.46 49.89q-0.99 0.88-2.01 1.77c-8.52 7.93-15.6 18.92-16.84 30.65-0.2 6.9 0.82 12.85 3.26 19.29-8.87-4.25-14.83-11.43-18.52-20.49q-0.6-1.35-1.21-2.74c-2.23-9.47-0.44-17.08 4.14-25.55 11.63-18.36 30.85-30.27 49.7-40q1.07-0.56 2.17-1.13c23.56-12.17 49.54-19.63 75.36-25.27q1.14-0.25 2.31-0.51c20.46-4.49 41.06-7.59 61.79-10.49 1.07-0.15 1.07-0.15 2.17-0.31q2.94-0.41 5.88-0.82 3.01-0.44 5.99-1.04c2.71-0.53 5.29-0.49 8.04-0.43z"/>
		<path class="s4" d="m247.22 83.9c-3.19 2.13-4.9 2.39-8.65 2.87-6.66 0.96-13.09 2.33-19.61 3.96-1.14 0.28-1.14 0.28-2.29 0.56-41.64 10.3-83.46 23.88-116.6 52.12-1.18 0.95-1.18 0.95-2.38 1.92-5.78 4.8-9.56 10.08-13.21 16.62q-0.93 1.56-1.89 3.17c-2.07 7.3-1.81 15.81-0.06 23.17q-0.96 0-1.95 0c-5.33-6.71-7.44-14.13-7.16-22.67 1.61-12.9 11.51-22.72 20.8-30.99 4.08-3.17 8.32-6.01 12.67-8.78q0.87-0.57 1.77-1.15c32.3-20.91 71.75-31.48 109.32-37.87q1.29-0.22 2.63-0.45 3.89-0.65 7.79-1.26 1.15-0.18 2.33-0.38c5.52-0.83 10.91-0.97 16.49-0.84z"/>
		<path class="s5" d="m135.15 155.12c1.13 3.41 0.77 4.83 0.03 8.31q-0.35 1.65-0.7 3.35-0.39 1.8-0.79 3.65-0.39 1.84-0.79 3.74-1.3 6.09-2.62 12.17-0.24 1.08-0.47 2.18-3.15 14.53-6.35 29.04c-5.16-1.72-7.38-7.07-9.8-11.73-3.09-7.21-2.78-14.8-0.05-22.08 5.1-10.84 12.89-20.44 21.54-28.63z"/>
	</g>
</svg>